<svg xmlns="http://www.w3.org/2000/svg" viewBox="0 0 33.33 53.71"><g id="Layer_2" data-name="Layer 2"><g id="Capa_1" data-name="Capa 1"><path d="M16.79,36.38A4.93,4.93,0,0,0,13,34.84c-2,0-3.93,0-5.89,0a10.19,10.19,0,0,1-3.83-.57A5.05,5.05,0,0,1,0,29.55V.49C0,0,0,0,.49,0h32.4c.43,0,.44,0,.44.42q0,14.72,0,29.43a4.65,4.65,0,0,1-1.89,3.67,6.19,6.19,0,0,1-3.8,1.29c-2.32,0-4.63,0-6.94,0a6,6,0,0,0-2.63.53,7.28,7.28,0,0,0-1.07.7A1.27,1.27,0,0,0,16.79,36.38ZM31,2.37H2.78c-.42,0-.42,0-.42.42q0,13.44,0,26.88a2.42,2.42,0,0,0,.81,1.8,4.21,4.21,0,0,0,3,1c2.21,0,4.42,0,6.63,0a9.11,9.11,0,0,1,3.75.79.55.55,0,0,0,.42,0,8.77,8.77,0,0,1,3.67-.78c2.16,0,4.32,0,6.48,0a7,7,0,0,0,1.75-.26A2.79,2.79,0,0,0,31,29.37q0-13.11,0-26.23Z"/><path d="M16.69,42.85a4,4,0,0,0-2.18-1.22,7.12,7.12,0,0,0-1.52-.2c-2.83,0-5.67,0-8.51,0-.27,0-.38-.06-.36-.36,0-.56,0-1.12,0-1.69,0-.21.06-.31.3-.31,2.93,0,5.87,0,8.81,0a7.53,7.53,0,0,1,3.12.71.81.81,0,0,0,.77,0,7.81,7.81,0,0,1,3.18-.72c2.85,0,5.69,0,8.54,0,.3,0,.39.09.38.38,0,.51,0,1,0,1.51s.07.47-.45.47H24.3c-1.28,0-2.56,0-3.84,0a5.38,5.38,0,0,0-2.6.61A10.68,10.68,0,0,0,16.69,42.85Z"/><path d="M27.81,12l-1.14,1.07a.32.32,0,0,0-.07.45c.26.57.51,1.16.72,1.75a.34.34,0,0,0,.4.27H29c.2,0,.27.06.27.26,0,1.81,0,3.61,0,5.41a1.65,1.65,0,0,1-.05.33c-.59-.44-1.14-.84-1.68-1.26a.44.44,0,0,1-.1-.3c0-.74,0-1.48,0-2.21,0-.31-.1-.4-.39-.38s-.59,0-.89,0a.28.28,0,0,1-.31-.26,9.73,9.73,0,0,0-1.63-3.93.26.26,0,0,1,.05-.4c.25-.23.49-.47.72-.71a.35.35,0,0,0,.05-.27c-.52-.56-1.06-1.11-1.68-1.76-.29.34-.53.6-.75.89s-.36.25-.62.07a9.19,9.19,0,0,0-3-1.37q-.39-.11-.78-.18c-.24,0-.35-.15-.33-.41s0-.59,0-.89-.06-.28-.27-.27h-2c-.2,0-.28,0-.27.26a7.63,7.63,0,0,0,0,.83c.05.36-.14.44-.43.51a9.35,9.35,0,0,0-1.59.45,23.53,23.53,0,0,0-2.11,1.11c-.21.11-.34.12-.5-.06s-.45-.45-.67-.68-.2-.13-.33,0L8.36,11.77c-.14.13-.11.23,0,.35l.68.67a.32.32,0,0,1,0,.48,9.21,9.21,0,0,0-1.43,3.1c-.06.24-.12.48-.16.72s-.12.31-.34.3h-1c-.2,0-.28.07-.27.27,0,.49,0,1,0,1.47a.44.44,0,0,1-.11.33c-.49.41-1,.79-1.49,1.18,0,0-.1.05-.22.09V15.88c0-.26.07-.36.34-.35.43,0,.86,0,1.29,0A.45.45,0,0,0,6,15.31c.28-.63.54-1.26.79-1.9a.36.36,0,0,0-.08-.31c-.38-.38-.78-.74-1.2-1.14l1-1L9.68,7.8c.28-.27.32-.26.59,0s.59.59.88.9a.29.29,0,0,0,.38,0c.58-.26,1.18-.52,1.78-.75a.32.32,0,0,0,.26-.37c0-.44,0-.88,0-1.32,0-.21.08-.29.29-.29h5.68c.18,0,.25.07.25.25,0,.45,0,.9,0,1.35a.34.34,0,0,0,.26.38c.62.24,1.23.51,1.85.75a.44.44,0,0,0,.33-.07c.35-.32.68-.65,1-1,.13-.13.22-.14.36,0l4.12,4.13A1.87,1.87,0,0,1,27.81,12Z"/><path d="M4.6,25.84a2,2,0,0,1,0-.29c0-.81,0-1.62,0-2.43a.56.56,0,0,1,.19-.37c1.4-1.12,2.79-2.24,4.21-3.34a7.17,7.17,0,0,1,4.89-1.65,5.22,5.22,0,0,1,2.89,1c.58.42,1.11.89,1.66,1.35a1.35,1.35,0,0,0,1.18.35,4.75,4.75,0,0,1,3.83,1.1,1.35,1.35,0,0,0,.81.26,5.85,5.85,0,0,1,3.86,1.25,1.41,1.41,0,0,1,.69,1.45,14.58,14.58,0,0,0,0,1.62v.38l-.34-.2c-.67-.51-1.35-1-2-1.53a2.92,2.92,0,0,0-2-.6,3.46,3.46,0,0,1-2.58-.85A2.32,2.32,0,0,0,20,22.78a5.16,5.16,0,0,1-1.52,0,4.1,4.1,0,0,1-2-1.23,5,5,0,0,0-1.87-1.23,3.61,3.61,0,0,0-3,.31A25,25,0,0,0,9,22.41c-1.42,1.1-2.83,2.23-4.24,3.34C4.71,25.78,4.67,25.79,4.6,25.84Z"/><path d="M3.85,49.35v.44c0,.65.17,1.29.7,1.29s.67-.36.75-1H6.57a1.81,1.81,0,0,1-2,2c-2.06,0-2.14-1.58-2.14-3s.29-2.85,2.2-2.85c1.65,0,2,1.11,2,2.8v.32Zm1.45-.84c0-.84-.14-1.32-.72-1.32s-.73.59-.73,1.1v.22Z"/><path d="M8.43,50.09v.19a.71.71,0,0,0,.74.8.63.63,0,0,0,.72-.66c0-.36-.24-.52-.52-.63l-1-.36A1.52,1.52,0,0,1,7.2,47.89c0-.91.57-1.66,2-1.66,1.28,0,1.89.57,1.89,1.57V48H9.85c0-.56-.17-.84-.63-.84a.61.61,0,0,0-.67.6c0,.27.15.49.62.65l.85.28a1.49,1.49,0,0,1,1.22,1.59c0,1.16-.86,1.73-2.05,1.73-1.59,0-2-.7-2-1.75v-.2Z"/><path d="M12,46.37h1.36V47h0a1.33,1.33,0,0,1,1.25-.73c1.16,0,1.7.85,1.7,2.91s-.54,2.9-1.7,2.9a1.32,1.32,0,0,1-1.19-.66h0v2.33H12ZM14.12,51c.61,0,.74-.61.74-1.81s-.13-1.82-.74-1.82-.75.61-.75,1.82S13.49,51,14.12,51Z"/><path d="M19.08,46.23c1.7,0,2.18,1,2.18,2.91S20.7,52,19.08,52s-2.18-1-2.18-2.9S17.46,46.23,19.08,46.23Zm0,4.85c.57,0,.76-.57.76-1.94s-.19-2-.76-2-.76.82-.76,2S18.38,51.08,19.08,51.08Z"/><path d="M24.68,48.37c0-.54-.11-1.11-.64-1.11-.7,0-.81.61-.81,1.89s.12,1.93.76,1.93c.47,0,.69-.4.69-1.3H26c0,1.45-.6,2.26-2.1,2.26s-2.12-.69-2.12-2.9.93-2.91,2.24-2.91a1.88,1.88,0,0,1,2,2.14Z"/><path d="M26.77,44.57h1.42v2.37h0a1.45,1.45,0,0,1,1.34-.71c.89,0,1.41.48,1.41,1.57v4.1H29.54V48.09c0-.56-.18-.77-.6-.77s-.75.3-.75.91V51.9H26.77Z"/></g></g></svg>