<svg xmlns="http://www.w3.org/2000/svg" xmlns:xlink="http://www.w3.org/1999/xlink" viewBox="0 0 367.11 359.75"><defs><style>.cls-1{mask:url(#mask);filter:url(#luminosity-noclip-33);}.cls-10,.cls-100,.cls-12,.cls-14,.cls-16,.cls-18,.cls-2,.cls-20,.cls-22,.cls-24,.cls-26,.cls-28,.cls-30,.cls-32,.cls-34,.cls-36,.cls-38,.cls-4,.cls-40,.cls-42,.cls-44,.cls-46,.cls-48,.cls-50,.cls-52,.cls-54,.cls-56,.cls-58,.cls-6,.cls-60,.cls-62,.cls-64,.cls-8{mix-blend-mode:multiply;}.cls-2{fill:url(#linear-gradient);}.cls-3{mask:url(#mask-2);filter:url(#luminosity-noclip-38);}.cls-4{fill:url(#linear-gradient-2);}.cls-5{mask:url(#mask-3);filter:url(#luminosity-noclip-39);}.cls-6{fill:url(#linear-gradient-3);}.cls-7{mask:url(#mask-4);filter:url(#luminosity-noclip-40);}.cls-8{fill:url(#linear-gradient-4);}.cls-9{mask:url(#mask-5);filter:url(#luminosity-noclip-41);}.cls-10{fill:url(#linear-gradient-5);}.cls-11{mask:url(#mask-6);filter:url(#luminosity-noclip-42);}.cls-12{fill:url(#linear-gradient-6);}.cls-13{mask:url(#mask-7);filter:url(#luminosity-noclip-34);}.cls-14{fill:url(#linear-gradient-7);}.cls-15{mask:url(#mask-8);filter:url(#luminosity-noclip-43);}.cls-16{fill:url(#linear-gradient-8);}.cls-17{mask:url(#mask-9);filter:url(#luminosity-noclip-44);}.cls-18{fill:url(#linear-gradient-9);}.cls-19{mask:url(#mask-10);filter:url(#luminosity-noclip-45);}.cls-20{fill:url(#linear-gradient-10);}.cls-21{mask:url(#mask-11);filter:url(#luminosity-noclip-46);}.cls-22{fill:url(#linear-gradient-11);}.cls-23{mask:url(#mask-12);filter:url(#luminosity-noclip-47);}.cls-24{fill:url(#linear-gradient-12);}.cls-25{mask:url(#mask-13);filter:url(#luminosity-noclip-48);}.cls-26{fill:url(#linear-gradient-13);}.cls-27{mask:url(#mask-14);filter:url(#luminosity-noclip-49);}.cls-28{fill:url(#linear-gradient-14);}.cls-29{mask:url(#mask-15);filter:url(#luminosity-noclip-50);}.cls-30{fill:url(#linear-gradient-15);}.cls-31{mask:url(#mask-16);filter:url(#luminosity-noclip-51);}.cls-32{fill:url(#linear-gradient-16);}.cls-33{mask:url(#mask-17);filter:url(#luminosity-noclip-52);}.cls-34{fill:url(#linear-gradient-17);}.cls-35{mask:url(#mask-18);filter:url(#luminosity-noclip-35);}.cls-36{fill:url(#linear-gradient-18);}.cls-37{mask:url(#mask-19);filter:url(#luminosity-noclip-53);}.cls-38{fill:url(#linear-gradient-19);}.cls-39{mask:url(#mask-20);filter:url(#luminosity-noclip-54);}.cls-40{fill:url(#linear-gradient-20);}.cls-41{mask:url(#mask-21);filter:url(#luminosity-noclip-55);}.cls-42{fill:url(#linear-gradient-21);}.cls-43{mask:url(#mask-22);filter:url(#luminosity-noclip-56);}.cls-44{fill:url(#linear-gradient-22);}.cls-45{mask:url(#mask-23);filter:url(#luminosity-noclip-57);}.cls-46{fill:url(#linear-gradient-23);}.cls-47{mask:url(#mask-24);filter:url(#luminosity-noclip-58);}.cls-48{fill:url(#linear-gradient-24);}.cls-49{mask:url(#mask-25);filter:url(#luminosity-noclip-59);}.cls-50{fill:url(#linear-gradient-25);}.cls-51{mask:url(#mask-26);filter:url(#luminosity-noclip-60);}.cls-52{fill:url(#linear-gradient-26);}.cls-53{mask:url(#mask-27);filter:url(#luminosity-noclip-61);}.cls-54{fill:url(#linear-gradient-27);}.cls-55{mask:url(#mask-28);filter:url(#luminosity-noclip-62);}.cls-56{fill:url(#linear-gradient-28);}.cls-57{mask:url(#mask-29);filter:url(#luminosity-noclip-36);}.cls-58{fill:url(#linear-gradient-29);}.cls-59{mask:url(#mask-30);filter:url(#luminosity-noclip-63);}.cls-60{fill:url(#linear-gradient-30);}.cls-61{mask:url(#mask-31);filter:url(#luminosity-noclip-64);}.cls-62{fill:url(#linear-gradient-31);}.cls-63{mask:url(#mask-32);filter:url(#luminosity-noclip-37);}.cls-64{fill:url(#linear-gradient-32);}.cls-65,.cls-70,.cls-82,.cls-83,.cls-84,.cls-99{fill:#533274;}.cls-66{isolation:isolate;}.cls-67{opacity:0.68;}.cls-68{clip-path:url(#clip-path);}.cls-69{mask:url(#mask-33);}.cls-70{mix-blend-mode:screen;}.cls-70,.cls-98{opacity:0.4;}.cls-71{mask:url(#mask-34);}.cls-72{mask:url(#mask-35);}.cls-73{mask:url(#mask-36);}.cls-74{mask:url(#mask-37);}.cls-75{mask:url(#mask-38);}.cls-76{mask:url(#mask-39);}.cls-77{mask:url(#mask-40);}.cls-78{mask:url(#mask-41);}.cls-79{mask:url(#mask-42);}.cls-80,.cls-82,.cls-98,.cls-99{mix-blend-mode:soft-light;}.cls-80,.cls-82,.cls-84{opacity:0.5;}.cls-81{opacity:0.6;}.cls-83{opacity:0;}.cls-85{mask:url(#mask-43);}.cls-86{mask:url(#mask-44);}.cls-87{mask:url(#mask-45);}.cls-88{mask:url(#mask-46);}.cls-89{mask:url(#mask-47);}.cls-90{mask:url(#mask-48);}.cls-91{mask:url(#mask-49);}.cls-92{mask:url(#mask-50);}.cls-93{mask:url(#mask-51);}.cls-94{mask:url(#mask-52);}.cls-95{clip-path:url(#clip-path-2);}.cls-96{mask:url(#mask-53);}.cls-97{mask:url(#mask-54);}.cls-101{mask:url(#mask-55);}.cls-102{mask:url(#mask-56);}.cls-103{mask:url(#mask-57);}.cls-104{mask:url(#mask-58);}.cls-105{mask:url(#mask-59);}.cls-106{mask:url(#mask-60);}.cls-107{mask:url(#mask-61);}.cls-108{mask:url(#mask-62);}.cls-109{mask:url(#mask-63);}.cls-110{mask:url(#mask-64);}.cls-111{filter:url(#luminosity-noclip-32);}.cls-112{filter:url(#luminosity-noclip-31);}.cls-113{filter:url(#luminosity-noclip-30);}.cls-114{filter:url(#luminosity-noclip-29);}.cls-115{filter:url(#luminosity-noclip-28);}.cls-116{filter:url(#luminosity-noclip-27);}.cls-117{filter:url(#luminosity-noclip-26);}.cls-118{filter:url(#luminosity-noclip-25);}.cls-119{filter:url(#luminosity-noclip-24);}.cls-120{filter:url(#luminosity-noclip-23);}.cls-121{filter:url(#luminosity-noclip-22);}.cls-122{filter:url(#luminosity-noclip-21);}.cls-123{filter:url(#luminosity-noclip-20);}.cls-124{filter:url(#luminosity-noclip-19);}.cls-125{filter:url(#luminosity-noclip-18);}.cls-126{filter:url(#luminosity-noclip-17);}.cls-127{filter:url(#luminosity-noclip-16);}.cls-128{filter:url(#luminosity-noclip-15);}.cls-129{filter:url(#luminosity-noclip-14);}.cls-130{filter:url(#luminosity-noclip-13);}.cls-131{filter:url(#luminosity-noclip-12);}.cls-132{filter:url(#luminosity-noclip-11);}.cls-133{filter:url(#luminosity-noclip-10);}.cls-134{filter:url(#luminosity-noclip-9);}.cls-135{filter:url(#luminosity-noclip-8);}.cls-136{filter:url(#luminosity-noclip-7);}.cls-137{filter:url(#luminosity-noclip-6);}.cls-138{filter:url(#luminosity-noclip-5);}.cls-139{filter:url(#luminosity-noclip-4);}.cls-140{filter:url(#luminosity-noclip-3);}.cls-141{filter:url(#luminosity-noclip-2);}.cls-142{filter:url(#luminosity-noclip);}</style><filter id="luminosity-noclip" x="133.92" y="-8677.35" width="18.31" height="32766" filterUnits="userSpaceOnUse" color-interpolation-filters="sRGB"><feFlood flood-color="#fff" result="bg"/><feBlend in="SourceGraphic" in2="bg"/></filter><mask id="mask" x="133.92" y="-8677.35" width="18.31" height="32766" maskUnits="userSpaceOnUse"><g class="cls-142"/></mask><linearGradient id="linear-gradient" x1="-606.22" y1="830.77" x2="-606.22" y2="1106.12" gradientTransform="translate(-463.14 1180.96) rotate(180)" gradientUnits="userSpaceOnUse"><stop offset="0"/><stop offset="0.09" stop-color="#2f2f2f"/><stop offset="0.31" stop-color="#9e9e9e"/><stop offset="0.47" stop-color="#e4e4e4"/><stop offset="0.54" stop-color="#fff"/><stop offset="0.55" stop-color="#f8f8f8"/><stop offset="0.65" stop-color="#aeaeae"/><stop offset="0.74" stop-color="#707070"/><stop offset="0.83" stop-color="#404040"/><stop offset="0.9" stop-color="#1d1d1d"/><stop offset="0.96" stop-color="#080808"/><stop offset="1"/></linearGradient><filter id="luminosity-noclip-2" x="121.1" y="-8677.35" width="13.26" height="32766" filterUnits="userSpaceOnUse" color-interpolation-filters="sRGB"><feFlood flood-color="#fff" result="bg"/><feBlend in="SourceGraphic" in2="bg"/></filter><mask id="mask-2" x="121.1" y="-8677.35" width="13.26" height="32766" maskUnits="userSpaceOnUse"><g class="cls-141"/></mask><linearGradient id="linear-gradient-2" x1="-590.17" y1="858.73" x2="-590.17" y2="1108.01" gradientTransform="translate(-462.44 1181.52) rotate(180)" xlink:href="#linear-gradient"/><filter id="luminosity-noclip-3" x="121.85" y="-8677.35" width="14.92" height="32766" filterUnits="userSpaceOnUse" color-interpolation-filters="sRGB"><feFlood flood-color="#fff" result="bg"/><feBlend in="SourceGraphic" in2="bg"/></filter><mask id="mask-3" x="121.85" y="-8677.35" width="14.92" height="32766" maskUnits="userSpaceOnUse"><g class="cls-140"/></mask><linearGradient id="linear-gradient-3" x1="-590.17" y1="858.73" x2="-590.17" y2="1108.01" gradientTransform="translate(-460.86 1181.5) rotate(180)" xlink:href="#linear-gradient"/><filter id="luminosity-noclip-4" x="119.78" y="-8677.35" width="13.22" height="32766" filterUnits="userSpaceOnUse" color-interpolation-filters="sRGB"><feFlood flood-color="#fff" result="bg"/><feBlend in="SourceGraphic" in2="bg"/></filter><mask id="mask-4" x="119.78" y="-8677.35" width="13.22" height="32766" maskUnits="userSpaceOnUse"><g class="cls-139"/></mask><linearGradient id="linear-gradient-4" x1="-590.17" y1="858.73" x2="-590.17" y2="1108.01" gradientTransform="translate(-463.78 1181.55) rotate(180)" xlink:href="#linear-gradient"/><filter id="luminosity-noclip-5" x="119.06" y="-8677.35" width="13.19" height="32766" filterUnits="userSpaceOnUse" color-interpolation-filters="sRGB"><feFlood flood-color="#fff" result="bg"/><feBlend in="SourceGraphic" in2="bg"/></filter><mask id="mask-5" x="119.06" y="-8677.35" width="13.19" height="32766" maskUnits="userSpaceOnUse"><g class="cls-138"/></mask><linearGradient id="linear-gradient-5" x1="-590.17" y1="858.73" x2="-590.17" y2="1108.01" gradientTransform="translate(-464.51 1181.56) rotate(180)" xlink:href="#linear-gradient"/><filter id="luminosity-noclip-6" x="116.13" y="-8677.35" width="13.71" height="32766" filterUnits="userSpaceOnUse" color-interpolation-filters="sRGB"><feFlood flood-color="#fff" result="bg"/><feBlend in="SourceGraphic" in2="bg"/></filter><mask id="mask-6" x="116.13" y="-8677.35" width="13.71" height="32766" maskUnits="userSpaceOnUse"><g class="cls-137"/></mask><linearGradient id="linear-gradient-6" x1="-590.17" y1="858.73" x2="-590.17" y2="1108.01" gradientTransform="translate(-467.18 1181.61) rotate(180)" xlink:href="#linear-gradient"/><filter id="luminosity-noclip-7" x="159.41" y="-8677.35" width="12.08" height="32766" filterUnits="userSpaceOnUse" color-interpolation-filters="sRGB"><feFlood flood-color="#fff" result="bg"/><feBlend in="SourceGraphic" in2="bg"/></filter><mask id="mask-7" x="159.41" y="-8677.35" width="12.08" height="32766" maskUnits="userSpaceOnUse"><g class="cls-136"/></mask><linearGradient id="linear-gradient-7" x1="-630.8" y1="891.74" x2="-630.8" y2="1167.09" gradientTransform="translate(-465.35 1180.12) rotate(180)" xlink:href="#linear-gradient"/><filter id="luminosity-noclip-8" x="206.82" y="-8677.35" width="18.31" height="32766" filterUnits="userSpaceOnUse" color-interpolation-filters="sRGB"><feFlood flood-color="#fff" result="bg"/><feBlend in="SourceGraphic" in2="bg"/></filter><mask id="mask-8" x="206.82" y="-8677.35" width="18.31" height="32766" maskUnits="userSpaceOnUse"><g class="cls-135"/></mask><linearGradient id="linear-gradient-8" x1="-680.32" y1="862.75" x2="-680.32" y2="1138.1" gradientTransform="translate(-464.34 1178.32) rotate(180)" xlink:href="#linear-gradient"/><filter id="luminosity-noclip-9" x="131.86" y="-8677.35" width="12.08" height="32766" filterUnits="userSpaceOnUse" color-interpolation-filters="sRGB"><feFlood flood-color="#fff" result="bg"/><feBlend in="SourceGraphic" in2="bg"/></filter><mask id="mask-9" x="131.86" y="-8677.35" width="12.08" height="32766" maskUnits="userSpaceOnUse"><g class="cls-134"/></mask><linearGradient id="linear-gradient-9" x1="-599.58" y1="789.97" x2="-599.58" y2="1065.32" gradientTransform="translate(-461.68 1181.17) rotate(180)" xlink:href="#linear-gradient"/><filter id="luminosity-noclip-10" x="120.51" y="-8677.35" width="13.24" height="32766" filterUnits="userSpaceOnUse" color-interpolation-filters="sRGB"><feFlood flood-color="#fff" result="bg"/><feBlend in="SourceGraphic" in2="bg"/></filter><mask id="mask-10" x="120.51" y="-8677.35" width="13.24" height="32766" maskUnits="userSpaceOnUse"><g class="cls-133"/></mask><linearGradient id="linear-gradient-10" x1="-594.85" y1="902.41" x2="-594.85" y2="1151.68" gradientTransform="translate(-467.72 1181.45) rotate(180)" xlink:href="#linear-gradient"/><filter id="luminosity-noclip-11" x="121.42" y="-8677.35" width="13.18" height="32766" filterUnits="userSpaceOnUse" color-interpolation-filters="sRGB"><feFlood flood-color="#fff" result="bg"/><feBlend in="SourceGraphic" in2="bg"/></filter><mask id="mask-11" x="121.42" y="-8677.35" width="13.18" height="32766" maskUnits="userSpaceOnUse"><g class="cls-132"/></mask><linearGradient id="linear-gradient-11" x1="-594.85" y1="902.41" x2="-594.85" y2="1151.68" gradientTransform="translate(-466.84 1181.43) rotate(180)" xlink:href="#linear-gradient"/><filter id="luminosity-noclip-12" x="123.59" y="-8677.35" width="13.14" height="32766" filterUnits="userSpaceOnUse" color-interpolation-filters="sRGB"><feFlood flood-color="#fff" result="bg"/><feBlend in="SourceGraphic" in2="bg"/></filter><mask id="mask-12" x="123.59" y="-8677.35" width="13.14" height="32766" maskUnits="userSpaceOnUse"><g class="cls-131"/></mask><linearGradient id="linear-gradient-12" x1="-594.85" y1="902.41" x2="-594.85" y2="1151.68" gradientTransform="translate(-464.68 1181.4) rotate(180)" xlink:href="#linear-gradient"/><filter id="luminosity-noclip-13" x="124.21" y="-8677.35" width="13.26" height="32766" filterUnits="userSpaceOnUse" color-interpolation-filters="sRGB"><feFlood flood-color="#fff" result="bg"/><feBlend in="SourceGraphic" in2="bg"/></filter><mask id="mask-13" x="124.21" y="-8677.35" width="13.26" height="32766" maskUnits="userSpaceOnUse"><g class="cls-130"/></mask><linearGradient id="linear-gradient-13" x1="-594.85" y1="902.41" x2="-594.85" y2="1151.68" gradientTransform="translate(-464.01 1181.38) rotate(180)" xlink:href="#linear-gradient"/><filter id="luminosity-noclip-14" x="124.96" y="-8677.35" width="14.92" height="32766" filterUnits="userSpaceOnUse" color-interpolation-filters="sRGB"><feFlood flood-color="#fff" result="bg"/><feBlend in="SourceGraphic" in2="bg"/></filter><mask id="mask-14" x="124.96" y="-8677.35" width="14.92" height="32766" maskUnits="userSpaceOnUse"><g class="cls-129"/></mask><linearGradient id="linear-gradient-14" x1="-594.85" y1="902.41" x2="-594.85" y2="1151.68" gradientTransform="translate(-462.43 1181.36) rotate(180)" xlink:href="#linear-gradient"/><filter id="luminosity-noclip-15" x="122.89" y="-8677.35" width="13.22" height="32766" filterUnits="userSpaceOnUse" color-interpolation-filters="sRGB"><feFlood flood-color="#fff" result="bg"/><feBlend in="SourceGraphic" in2="bg"/></filter><mask id="mask-15" x="122.89" y="-8677.35" width="13.22" height="32766" maskUnits="userSpaceOnUse"><g class="cls-128"/></mask><linearGradient id="linear-gradient-15" x1="-594.85" y1="902.41" x2="-594.85" y2="1151.68" gradientTransform="translate(-465.35 1181.41) rotate(180)" xlink:href="#linear-gradient"/><filter id="luminosity-noclip-16" x="122.17" y="-8677.35" width="13.19" height="32766" filterUnits="userSpaceOnUse" color-interpolation-filters="sRGB"><feFlood flood-color="#fff" result="bg"/><feBlend in="SourceGraphic" in2="bg"/></filter><mask id="mask-16" x="122.17" y="-8677.35" width="13.19" height="32766" maskUnits="userSpaceOnUse"><g class="cls-127"/></mask><linearGradient id="linear-gradient-16" x1="-594.85" y1="902.41" x2="-594.85" y2="1151.68" gradientTransform="translate(-466.08 1181.42) rotate(180)" xlink:href="#linear-gradient"/><filter id="luminosity-noclip-17" x="119.24" y="-8677.35" width="13.71" height="32766" filterUnits="userSpaceOnUse" color-interpolation-filters="sRGB"><feFlood flood-color="#fff" result="bg"/><feBlend in="SourceGraphic" in2="bg"/></filter><mask id="mask-17" x="119.24" y="-8677.35" width="13.71" height="32766" maskUnits="userSpaceOnUse"><g class="cls-126"/></mask><linearGradient id="linear-gradient-17" x1="-594.85" y1="902.41" x2="-594.85" y2="1151.68" gradientTransform="translate(-468.75 1181.47) rotate(180)" xlink:href="#linear-gradient"/><filter id="luminosity-noclip-18" x="117.4" y="-8677.35" width="13.24" height="32766" filterUnits="userSpaceOnUse" color-interpolation-filters="sRGB"><feFlood flood-color="#fff" result="bg"/><feBlend in="SourceGraphic" in2="bg"/></filter><mask id="mask-18" x="117.4" y="-8677.35" width="13.24" height="32766" maskUnits="userSpaceOnUse"><g class="cls-125"/></mask><linearGradient id="linear-gradient-18" x1="-590.17" y1="858.73" x2="-590.17" y2="1108.01" gradientTransform="translate(-466.15 1181.59) rotate(180)" xlink:href="#linear-gradient"/><filter id="luminosity-noclip-19" x="136.33" y="-8677.35" width="12.07" height="32766" filterUnits="userSpaceOnUse" color-interpolation-filters="sRGB"><feFlood flood-color="#fff" result="bg"/><feBlend in="SourceGraphic" in2="bg"/></filter><mask id="mask-19" x="136.33" y="-8677.35" width="12.07" height="32766" maskUnits="userSpaceOnUse"><g class="cls-124"/></mask><linearGradient id="linear-gradient-19" x1="-607.05" y1="915.86" x2="-607.05" y2="1097.34" gradientTransform="translate(-464.68 1180.96) rotate(180)" xlink:href="#linear-gradient"/><filter id="luminosity-noclip-20" x="173.5" y="-8677.35" width="7.96" height="32766" filterUnits="userSpaceOnUse" color-interpolation-filters="sRGB"><feFlood flood-color="#fff" result="bg"/><feBlend in="SourceGraphic" in2="bg"/></filter><mask id="mask-20" x="173.5" y="-8677.35" width="7.96" height="32766" maskUnits="userSpaceOnUse"><g class="cls-123"/></mask><linearGradient id="linear-gradient-20" x1="-641.76" y1="903.86" x2="-641.76" y2="1085.34" gradientTransform="translate(-464.28 1179.71) rotate(180)" xlink:href="#linear-gradient"/><filter id="luminosity-noclip-21" x="184.38" y="-8677.35" width="12.07" height="32766" filterUnits="userSpaceOnUse" color-interpolation-filters="sRGB"><feFlood flood-color="#fff" result="bg"/><feBlend in="SourceGraphic" in2="bg"/></filter><mask id="mask-21" x="184.38" y="-8677.35" width="12.07" height="32766" maskUnits="userSpaceOnUse"><g class="cls-122"/></mask><linearGradient id="linear-gradient-21" x1="-655.88" y1="936.93" x2="-655.88" y2="1118.41" gradientTransform="translate(-465.47 1179.22) rotate(180)" xlink:href="#linear-gradient"/><filter id="luminosity-noclip-22" x="134.97" y="-8677.35" width="7.96" height="32766" filterUnits="userSpaceOnUse" color-interpolation-filters="sRGB"><feFlood flood-color="#fff" result="bg"/><feBlend in="SourceGraphic" in2="bg"/></filter><mask id="mask-22" x="134.97" y="-8677.35" width="7.96" height="32766" maskUnits="userSpaceOnUse"><g class="cls-121"/></mask><linearGradient id="linear-gradient-22" x1="-602.67" y1="888.96" x2="-602.67" y2="1070.45" gradientTransform="translate(-463.72 1181.1) rotate(180)" xlink:href="#linear-gradient"/><filter id="luminosity-noclip-23" x="127.49" y="-8677.35" width="8.73" height="32766" filterUnits="userSpaceOnUse" color-interpolation-filters="sRGB"><feFlood flood-color="#fff" result="bg"/><feBlend in="SourceGraphic" in2="bg"/></filter><mask id="mask-23" x="127.49" y="-8677.35" width="8.73" height="32766" maskUnits="userSpaceOnUse"><g class="cls-120"/></mask><linearGradient id="linear-gradient-23" x1="-599.55" y1="963.07" x2="-599.55" y2="1127.37" gradientTransform="translate(-467.7 1181.28) rotate(180)" xlink:href="#linear-gradient"/><filter id="luminosity-noclip-24" x="128.09" y="-8677.35" width="8.68" height="32766" filterUnits="userSpaceOnUse" color-interpolation-filters="sRGB"><feFlood flood-color="#fff" result="bg"/><feBlend in="SourceGraphic" in2="bg"/></filter><mask id="mask-24" x="128.09" y="-8677.35" width="8.68" height="32766" maskUnits="userSpaceOnUse"><g class="cls-119"/></mask><linearGradient id="linear-gradient-24" x1="-599.55" y1="963.07" x2="-599.55" y2="1127.36" gradientTransform="translate(-467.12 1181.27) rotate(180)" xlink:href="#linear-gradient"/><filter id="luminosity-noclip-25" x="129.52" y="-8677.35" width="8.66" height="32766" filterUnits="userSpaceOnUse" color-interpolation-filters="sRGB"><feFlood flood-color="#fff" result="bg"/><feBlend in="SourceGraphic" in2="bg"/></filter><mask id="mask-25" x="129.52" y="-8677.35" width="8.66" height="32766" maskUnits="userSpaceOnUse"><g class="cls-118"/></mask><linearGradient id="linear-gradient-25" x1="-599.55" y1="963.07" x2="-599.55" y2="1127.36" gradientTransform="translate(-465.7 1181.25) rotate(180)" xlink:href="#linear-gradient"/><filter id="luminosity-noclip-26" x="129.93" y="-8677.35" width="8.74" height="32766" filterUnits="userSpaceOnUse" color-interpolation-filters="sRGB"><feFlood flood-color="#fff" result="bg"/><feBlend in="SourceGraphic" in2="bg"/></filter><mask id="mask-26" x="129.93" y="-8677.35" width="8.74" height="32766" maskUnits="userSpaceOnUse"><g class="cls-117"/></mask><linearGradient id="linear-gradient-26" x1="-599.55" y1="963.07" x2="-599.55" y2="1127.36" gradientTransform="translate(-465.25 1181.24) rotate(180)" xlink:href="#linear-gradient"/><filter id="luminosity-noclip-27" x="130.43" y="-8677.35" width="9.83" height="32766" filterUnits="userSpaceOnUse" color-interpolation-filters="sRGB"><feFlood flood-color="#fff" result="bg"/><feBlend in="SourceGraphic" in2="bg"/></filter><mask id="mask-27" x="130.43" y="-8677.35" width="9.83" height="32766" maskUnits="userSpaceOnUse"><g class="cls-116"/></mask><linearGradient id="linear-gradient-27" x1="-599.55" y1="963.07" x2="-599.55" y2="1127.36" gradientTransform="translate(-464.21 1181.22) rotate(180)" xlink:href="#linear-gradient"/><filter id="luminosity-noclip-28" x="129.06" y="-8677.35" width="8.71" height="32766" filterUnits="userSpaceOnUse" color-interpolation-filters="sRGB"><feFlood flood-color="#fff" result="bg"/><feBlend in="SourceGraphic" in2="bg"/></filter><mask id="mask-28" x="129.06" y="-8677.35" width="8.71" height="32766" maskUnits="userSpaceOnUse"><g class="cls-115"/></mask><linearGradient id="linear-gradient-28" x1="-599.55" y1="963.07" x2="-599.55" y2="1127.36" gradientTransform="translate(-466.14 1181.25) rotate(180)" xlink:href="#linear-gradient"/><filter id="luminosity-noclip-29" x="118.31" y="-8677.35" width="13.18" height="32766" filterUnits="userSpaceOnUse" color-interpolation-filters="sRGB"><feFlood flood-color="#fff" result="bg"/><feBlend in="SourceGraphic" in2="bg"/></filter><mask id="mask-29" x="118.31" y="-8677.35" width="13.18" height="32766" maskUnits="userSpaceOnUse"><g class="cls-114"/></mask><linearGradient id="linear-gradient-29" x1="-590.17" y1="858.73" x2="-590.17" y2="1108" gradientTransform="translate(-465.27 1181.57) rotate(180)" xlink:href="#linear-gradient"/><filter id="luminosity-noclip-30" x="128.59" y="-8677.35" width="8.69" height="32766" filterUnits="userSpaceOnUse" color-interpolation-filters="sRGB"><feFlood flood-color="#fff" result="bg"/><feBlend in="SourceGraphic" in2="bg"/></filter><mask id="mask-30" x="128.59" y="-8677.35" width="8.69" height="32766" maskUnits="userSpaceOnUse"><g class="cls-113"/></mask><linearGradient id="linear-gradient-30" x1="-599.55" y1="963.07" x2="-599.55" y2="1127.36" gradientTransform="translate(-466.62 1181.26) rotate(180)" xlink:href="#linear-gradient"/><filter id="luminosity-noclip-31" x="126.66" y="-8677.35" width="9.04" height="32766" filterUnits="userSpaceOnUse" color-interpolation-filters="sRGB"><feFlood flood-color="#fff" result="bg"/><feBlend in="SourceGraphic" in2="bg"/></filter><mask id="mask-31" x="126.66" y="-8677.35" width="9.04" height="32766" maskUnits="userSpaceOnUse"><g class="cls-112"/></mask><linearGradient id="linear-gradient-31" x1="-599.55" y1="963.07" x2="-599.55" y2="1127.36" gradientTransform="translate(-468.38 1181.29) rotate(180)" xlink:href="#linear-gradient"/><filter id="luminosity-noclip-32" x="120.48" y="-8677.35" width="13.14" height="32766" filterUnits="userSpaceOnUse" color-interpolation-filters="sRGB"><feFlood flood-color="#fff" result="bg"/><feBlend in="SourceGraphic" in2="bg"/></filter><mask id="mask-32" x="120.48" y="-8677.35" width="13.14" height="32766" maskUnits="userSpaceOnUse"><g class="cls-111"/></mask><linearGradient id="linear-gradient-32" x1="-590.17" y1="858.73" x2="-590.17" y2="1108.01" gradientTransform="translate(-463.11 1181.54) rotate(180)" xlink:href="#linear-gradient"/><clipPath id="clip-path"><path class="cls-65" d="M122,206.74l16.1.83,2.75,19.58S204,138.46,187,126.61c0,0-7.26-8-11.28-6.26,0,0-29.53,46.28-33.23,52.89s-20.65,33.39-20.65,33.39"/></clipPath><filter id="luminosity-noclip-33" x="133.92" y="104.29" width="18.31" height="244.18" filterUnits="userSpaceOnUse" color-interpolation-filters="sRGB"><feFlood flood-color="#fff" result="bg"/><feBlend in="SourceGraphic" in2="bg"/></filter><mask id="mask-33" x="133.92" y="104.29" width="18.31" height="244.18" maskUnits="userSpaceOnUse"><g class="cls-1"><rect class="cls-2" x="138.29" y="104.38" width="9.56" height="244" transform="translate(-8.03 5.28) rotate(-2.06)"/></g></mask><filter id="luminosity-noclip-34" x="159.41" y="42.59" width="12.08" height="243.96" filterUnits="userSpaceOnUse" color-interpolation-filters="sRGB"><feFlood flood-color="#fff" result="bg"/><feBlend in="SourceGraphic" in2="bg"/></filter><mask id="mask-34" x="159.41" y="42.59" width="12.08" height="243.96" maskUnits="userSpaceOnUse"><g class="cls-13"><rect class="cls-14" x="163.79" y="42.57" width="3.33" height="244" transform="translate(-5.8 6.04) rotate(-2.06)"/></g></mask><filter id="luminosity-noclip-35" x="117.4" y="135.42" width="13.24" height="15.12" filterUnits="userSpaceOnUse" color-interpolation-filters="sRGB"><feFlood flood-color="#fff" result="bg"/><feBlend in="SourceGraphic" in2="bg"/></filter><mask id="mask-35" x="117.4" y="135.42" width="13.24" height="15.12" maskUnits="userSpaceOnUse"><g class="cls-35"><rect class="cls-36" x="117.66" y="135.64" width="12.72" height="14.67" transform="translate(-5.05 4.54) rotate(-2.06)"/></g></mask><filter id="luminosity-noclip-36" x="118.31" y="160.74" width="13.18" height="13.34" filterUnits="userSpaceOnUse" color-interpolation-filters="sRGB"><feFlood flood-color="#fff" result="bg"/><feBlend in="SourceGraphic" in2="bg"/></filter><mask id="mask-36" x="118.31" y="160.74" width="13.18" height="13.34" maskUnits="userSpaceOnUse"><g class="cls-57"><rect class="cls-58" x="118.54" y="160.97" width="12.72" height="12.89" transform="translate(-5.93 4.59) rotate(-2.06)"/></g></mask><filter id="luminosity-noclip-37" x="120.48" y="221.33" width="13.14" height="12.41" filterUnits="userSpaceOnUse" color-interpolation-filters="sRGB"><feFlood flood-color="#fff" result="bg"/><feBlend in="SourceGraphic" in2="bg"/></filter><mask id="mask-37" x="120.48" y="221.33" width="13.14" height="12.41" maskUnits="userSpaceOnUse"><g class="cls-63"><rect class="cls-64" x="120.69" y="221.55" width="12.72" height="11.96" transform="translate(-8.08 4.7) rotate(-2.06)"/></g></mask><filter id="luminosity-noclip-38" x="121.1" y="238.51" width="13.26" height="15.77" filterUnits="userSpaceOnUse" color-interpolation-filters="sRGB"><feFlood flood-color="#fff" result="bg"/><feBlend in="SourceGraphic" in2="bg"/></filter><mask id="mask-38" x="121.1" y="238.51" width="13.26" height="15.77" maskUnits="userSpaceOnUse"><g class="cls-3"><rect class="cls-4" x="121.37" y="238.74" width="12.72" height="15.33" transform="translate(-8.76 4.74) rotate(-2.06)"/></g></mask><filter id="luminosity-noclip-39" x="121.85" y="259.43" width="14.92" height="61.9" filterUnits="userSpaceOnUse" color-interpolation-filters="sRGB"><feFlood flood-color="#fff" result="bg"/><feBlend in="SourceGraphic" in2="bg"/></filter><mask id="mask-39" x="121.85" y="259.43" width="14.92" height="61.9" maskUnits="userSpaceOnUse"><g class="cls-5"><rect class="cls-6" x="122.95" y="259.64" width="12.72" height="61.48" transform="translate(-10.33 4.83) rotate(-2.06)"/></g></mask><filter id="luminosity-noclip-40" x="119.78" y="201.62" width="13.22" height="14.56" filterUnits="userSpaceOnUse" color-interpolation-filters="sRGB"><feFlood flood-color="#fff" result="bg"/><feBlend in="SourceGraphic" in2="bg"/></filter><mask id="mask-40" x="119.78" y="201.62" width="13.22" height="14.56" maskUnits="userSpaceOnUse"><g class="cls-7"><rect class="cls-8" x="120.03" y="201.84" width="12.72" height="14.11" transform="translate(-7.41 4.67) rotate(-2.06)"/></g></mask><filter id="luminosity-noclip-41" x="119.06" y="181.62" width="13.19" height="13.79" filterUnits="userSpaceOnUse" color-interpolation-filters="sRGB"><feFlood flood-color="#fff" result="bg"/><feBlend in="SourceGraphic" in2="bg"/></filter><mask id="mask-41" x="119.06" y="181.62" width="13.19" height="13.79" maskUnits="userSpaceOnUse"><g class="cls-9"><rect class="cls-10" x="119.29" y="181.85" width="12.72" height="13.34" transform="translate(-6.68 4.63) rotate(-2.06)"/></g></mask><filter id="luminosity-noclip-42" x="116.13" y="100.13" width="13.71" height="28.19" filterUnits="userSpaceOnUse" color-interpolation-filters="sRGB"><feFlood flood-color="#fff" result="bg"/><feBlend in="SourceGraphic" in2="bg"/></filter><mask id="mask-42" x="116.13" y="100.13" width="13.71" height="28.19" maskUnits="userSpaceOnUse"><g class="cls-11"><rect class="cls-12" x="116.63" y="100.35" width="12.72" height="27.75" transform="translate(-4.02 4.49) rotate(-2.06)"/></g></mask><filter id="luminosity-noclip-43" x="206.82" y="69.67" width="18.31" height="244.18" filterUnits="userSpaceOnUse" color-interpolation-filters="sRGB"><feFlood flood-color="#fff" result="bg"/><feBlend in="SourceGraphic" in2="bg"/></filter><mask id="mask-43" x="206.82" y="69.67" width="18.31" height="244.18" maskUnits="userSpaceOnUse"><g class="cls-15"><rect class="cls-16" x="211.2" y="69.76" width="9.56" height="244" transform="translate(-6.74 7.87) rotate(-2.06)"/></g></mask><filter id="luminosity-noclip-44" x="131.86" y="145.41" width="12.08" height="243.96" filterUnits="userSpaceOnUse" color-interpolation-filters="sRGB"><feFlood flood-color="#fff" result="bg"/><feBlend in="SourceGraphic" in2="bg"/></filter><mask id="mask-44" x="131.86" y="145.41" width="12.08" height="243.96" maskUnits="userSpaceOnUse"><g class="cls-17"><rect class="cls-18" x="136.24" y="145.39" width="3.33" height="244" transform="translate(-9.5 5.12) rotate(-2.06)"/></g></mask><filter id="luminosity-noclip-45" x="120.51" y="91.6" width="13.24" height="15.12" filterUnits="userSpaceOnUse" color-interpolation-filters="sRGB"><feFlood flood-color="#fff" result="bg"/><feBlend in="SourceGraphic" in2="bg"/></filter><mask id="mask-45" x="120.51" y="91.6" width="13.24" height="15.12" maskUnits="userSpaceOnUse"><g class="cls-19"><rect class="cls-20" x="120.77" y="91.82" width="12.72" height="14.67" transform="translate(-3.48 4.62) rotate(-2.06)"/></g></mask><filter id="luminosity-noclip-46" x="121.42" y="116.92" width="13.18" height="13.34" filterUnits="userSpaceOnUse" color-interpolation-filters="sRGB"><feFlood flood-color="#fff" result="bg"/><feBlend in="SourceGraphic" in2="bg"/></filter><mask id="mask-46" x="121.42" y="116.92" width="13.18" height="13.34" maskUnits="userSpaceOnUse"><g class="cls-21"><rect class="cls-22" x="121.65" y="117.15" width="12.72" height="12.89" transform="translate(-4.35 4.67) rotate(-2.06)"/></g></mask><filter id="luminosity-noclip-47" x="123.59" y="177.51" width="13.14" height="12.41" filterUnits="userSpaceOnUse" color-interpolation-filters="sRGB"><feFlood flood-color="#fff" result="bg"/><feBlend in="SourceGraphic" in2="bg"/></filter><mask id="mask-47" x="123.59" y="177.51" width="13.14" height="12.41" maskUnits="userSpaceOnUse"><g class="cls-23"><rect class="cls-24" x="123.8" y="177.73" width="12.72" height="11.96" transform="translate(-6.51 4.79) rotate(-2.06)"/></g></mask><filter id="luminosity-noclip-48" x="124.21" y="194.69" width="13.26" height="15.77" filterUnits="userSpaceOnUse" color-interpolation-filters="sRGB"><feFlood flood-color="#fff" result="bg"/><feBlend in="SourceGraphic" in2="bg"/></filter><mask id="mask-48" x="124.21" y="194.69" width="13.26" height="15.77" maskUnits="userSpaceOnUse"><g class="cls-25"><rect class="cls-26" x="124.48" y="194.92" width="12.72" height="15.33" transform="translate(-7.18 4.82) rotate(-2.06)"/></g></mask><filter id="luminosity-noclip-49" x="124.96" y="215.62" width="14.92" height="61.9" filterUnits="userSpaceOnUse" color-interpolation-filters="sRGB"><feFlood flood-color="#fff" result="bg"/><feBlend in="SourceGraphic" in2="bg"/></filter><mask id="mask-49" x="124.96" y="215.62" width="14.92" height="61.9" maskUnits="userSpaceOnUse"><g class="cls-27"><rect class="cls-28" x="126.06" y="215.82" width="12.72" height="61.48" transform="translate(-8.76 4.91) rotate(-2.06)"/></g></mask><filter id="luminosity-noclip-50" x="122.89" y="157.8" width="13.22" height="14.56" filterUnits="userSpaceOnUse" color-interpolation-filters="sRGB"><feFlood flood-color="#fff" result="bg"/><feBlend in="SourceGraphic" in2="bg"/></filter><mask id="mask-50" x="122.89" y="157.8" width="13.22" height="14.56" maskUnits="userSpaceOnUse"><g class="cls-29"><rect class="cls-30" x="123.14" y="158.02" width="12.72" height="14.11" transform="translate(-5.84 4.75) rotate(-2.06)"/></g></mask><filter id="luminosity-noclip-51" x="122.17" y="137.81" width="13.19" height="13.79" filterUnits="userSpaceOnUse" color-interpolation-filters="sRGB"><feFlood flood-color="#fff" result="bg"/><feBlend in="SourceGraphic" in2="bg"/></filter><mask id="mask-51" x="122.17" y="137.81" width="13.19" height="13.79" maskUnits="userSpaceOnUse"><g class="cls-31"><rect class="cls-32" x="122.4" y="138.03" width="12.72" height="13.34" transform="translate(-5.11 4.71) rotate(-2.06)"/></g></mask><filter id="luminosity-noclip-52" x="119.24" y="56.31" width="13.71" height="28.19" filterUnits="userSpaceOnUse" color-interpolation-filters="sRGB"><feFlood flood-color="#fff" result="bg"/><feBlend in="SourceGraphic" in2="bg"/></filter><mask id="mask-52" x="119.24" y="56.31" width="13.71" height="28.19" maskUnits="userSpaceOnUse"><g class="cls-33"><rect class="cls-34" x="119.74" y="56.53" width="12.72" height="27.75" transform="translate(-2.44 4.57) rotate(-2.06)"/></g></mask><clipPath id="clip-path-2"><path class="cls-65" d="M178.28,228.75l5.09-22.23,15.73,2.86s-47.44-84-47.39-87.23c0,0-24.64,5.85-8.28,35C160.35,187.36,178.28,228.75,178.28,228.75Z"/></clipPath><filter id="luminosity-noclip-53" x="136.33" y="103.03" width="12.07" height="160.94" filterUnits="userSpaceOnUse" color-interpolation-filters="sRGB"><feFlood flood-color="#fff" result="bg"/><feBlend in="SourceGraphic" in2="bg"/></filter><mask id="mask-53" x="136.33" y="103.03" width="12.07" height="160.94" maskUnits="userSpaceOnUse"><g class="cls-37"><rect class="cls-38" x="139.21" y="103.09" width="6.3" height="160.81" transform="translate(-6.49 5.23) rotate(-2.06)"/></g></mask><filter id="luminosity-noclip-54" x="173.5" y="113.85" width="7.96" height="160.79" filterUnits="userSpaceOnUse" color-interpolation-filters="sRGB"><feFlood flood-color="#fff" result="bg"/><feBlend in="SourceGraphic" in2="bg"/></filter><mask id="mask-54" x="173.5" y="113.85" width="7.96" height="160.79" maskUnits="userSpaceOnUse"><g class="cls-39"><rect class="cls-40" x="176.38" y="113.83" width="2.19" height="160.81" transform="matrix(1, -0.04, 0.04, 1, -6.85, 6.49)"/></g></mask><filter id="luminosity-noclip-55" x="184.38" y="80.22" width="12.07" height="160.94" filterUnits="userSpaceOnUse" color-interpolation-filters="sRGB"><feFlood flood-color="#fff" result="bg"/><feBlend in="SourceGraphic" in2="bg"/></filter><mask id="mask-55" x="184.38" y="80.22" width="12.07" height="160.94" maskUnits="userSpaceOnUse"><g class="cls-41"><rect class="cls-42" x="187.26" y="80.28" width="6.3" height="160.81" transform="translate(-5.64 6.93) rotate(-2.06)"/></g></mask><filter id="luminosity-noclip-56" x="134.97" y="130.14" width="7.96" height="160.79" filterUnits="userSpaceOnUse" color-interpolation-filters="sRGB"><feFlood flood-color="#fff" result="bg"/><feBlend in="SourceGraphic" in2="bg"/></filter><mask id="mask-56" x="134.97" y="130.14" width="7.96" height="160.79" maskUnits="userSpaceOnUse"><g class="cls-43"><rect class="cls-44" x="137.86" y="130.12" width="2.19" height="160.81" transform="translate(-7.46 5.12) rotate(-2.06)"/></g></mask><filter id="luminosity-noclip-57" x="127.49" y="94.67" width="8.73" height="9.96" filterUnits="userSpaceOnUse" color-interpolation-filters="sRGB"><feFlood flood-color="#fff" result="bg"/><feBlend in="SourceGraphic" in2="bg"/></filter><mask id="mask-57" x="127.49" y="94.67" width="8.73" height="9.96" maskUnits="userSpaceOnUse"><g class="cls-45"><rect class="cls-46" x="127.66" y="94.82" width="8.38" height="9.67" transform="translate(-3.49 4.79) rotate(-2.06)"/></g></mask><filter id="luminosity-noclip-58" x="128.09" y="111.36" width="8.68" height="8.79" filterUnits="userSpaceOnUse" color-interpolation-filters="sRGB"><feFlood flood-color="#fff" result="bg"/><feBlend in="SourceGraphic" in2="bg"/></filter><mask id="mask-58" x="128.09" y="111.36" width="8.68" height="8.79" maskUnits="userSpaceOnUse"><g class="cls-47"><rect class="cls-48" x="128.24" y="111.51" width="8.38" height="8.5" transform="translate(-4.07 4.83) rotate(-2.06)"/></g></mask><filter id="luminosity-noclip-59" x="129.52" y="151.29" width="8.66" height="8.18" filterUnits="userSpaceOnUse" color-interpolation-filters="sRGB"><feFlood flood-color="#fff" result="bg"/><feBlend in="SourceGraphic" in2="bg"/></filter><mask id="mask-59" x="129.52" y="151.29" width="8.66" height="8.18" maskUnits="userSpaceOnUse"><g class="cls-49"><rect class="cls-50" x="129.66" y="151.44" width="8.38" height="7.88" transform="translate(-5.49 4.9) rotate(-2.06)"/></g></mask><filter id="luminosity-noclip-60" x="129.93" y="162.62" width="8.74" height="10.4" filterUnits="userSpaceOnUse" color-interpolation-filters="sRGB"><feFlood flood-color="#fff" result="bg"/><feBlend in="SourceGraphic" in2="bg"/></filter><mask id="mask-60" x="129.93" y="162.62" width="8.74" height="10.4" maskUnits="userSpaceOnUse"><g class="cls-51"><rect class="cls-52" x="130.11" y="162.77" width="8.38" height="10.1" transform="translate(-5.93 4.93) rotate(-2.06)"/></g></mask><filter id="luminosity-noclip-61" x="130.43" y="176.41" width="9.83" height="40.8" filterUnits="userSpaceOnUse" color-interpolation-filters="sRGB"><feFlood flood-color="#fff" result="bg"/><feBlend in="SourceGraphic" in2="bg"/></filter><mask id="mask-61" x="130.43" y="176.41" width="9.83" height="40.8" maskUnits="userSpaceOnUse"><g class="cls-53"><rect class="cls-54" x="131.15" y="176.55" width="8.38" height="40.52" transform="translate(-6.97 4.98) rotate(-2.06)"/></g></mask><filter id="luminosity-noclip-62" x="129.06" y="138.3" width="8.71" height="9.6" filterUnits="userSpaceOnUse" color-interpolation-filters="sRGB"><feFlood flood-color="#fff" result="bg"/><feBlend in="SourceGraphic" in2="bg"/></filter><mask id="mask-62" x="129.06" y="138.3" width="8.71" height="9.6" maskUnits="userSpaceOnUse"><g class="cls-55"><rect class="cls-56" x="129.22" y="138.45" width="8.38" height="9.3" transform="matrix(1, -0.04, 0.04, 1, -5.05, 4.88)"/></g></mask><filter id="luminosity-noclip-63" x="128.59" y="125.12" width="8.69" height="9.09" filterUnits="userSpaceOnUse" color-interpolation-filters="sRGB"><feFlood flood-color="#fff" result="bg"/><feBlend in="SourceGraphic" in2="bg"/></filter><mask id="mask-63" x="128.59" y="125.12" width="8.69" height="9.09" maskUnits="userSpaceOnUse"><g class="cls-59"><rect class="cls-60" x="128.74" y="125.27" width="8.38" height="8.79" transform="translate(-4.57 4.85) rotate(-2.06)"/></g></mask><filter id="luminosity-noclip-64" x="126.66" y="71.41" width="9.04" height="18.58" filterUnits="userSpaceOnUse" color-interpolation-filters="sRGB"><feFlood flood-color="#fff" result="bg"/><feBlend in="SourceGraphic" in2="bg"/></filter><mask id="mask-64" x="126.66" y="71.41" width="9.04" height="18.58" maskUnits="userSpaceOnUse"><g class="cls-61"><rect class="cls-62" x="126.98" y="71.56" width="8.38" height="18.29" transform="matrix(1, -0.04, 0.04, 1, -2.81, 4.76)"/></g></mask></defs><g class="cls-66"><g id="Capa_1" data-name="Capa 1"><path class="cls-65" d="M232.64,114.74c-17-24.57-40.32-38.13-70.42-38.29-20.43-.1-38.59,6.92-54,20.41-30.57,26.69-35,69-19.66,98.31l5.26,10.5c4.42,4.86,8.18,9.83,12.76,13.88,24.69,21.77,53.12,28.12,84,16.92,30.4-11,48.48-33.47,53.91-65.57a75.11,75.11,0,0,0-1.57-31C241.28,131.36,237.63,124.05,232.64,114.74Zm20,19.15c8,32.52,1.67,61.42-19.87,87l7.16,6.93,7.07-6.75,51,51-22.47,22.11-51.22-51.21,8.46-6.06-8.44-7.64c-24.43,20.44-52.58,27.7-83.83,20.42-25.15-5.86-44.53-20.44-58-42.51C55.65,162.93,70.38,104.8,115.2,78.53a93.36,93.36,0,0,1,126.15,30.4A108.32,108.32,0,0,1,252.66,133.89ZM240.39,243l35.9,35.88,6.36-6.1L246.78,237Z"/><path class="cls-65" d="M240.39,243l6.39-6,35.87,35.81-6.36,6.1Z"/><path class="cls-65" d="M122,206.74l16.1.83,2.75,19.58S204,138.46,187,126.61c0,0-7.26-8-11.28-6.26,0,0-29.53,46.28-33.23,52.89s-20.65,33.39-20.65,33.39"/><path class="cls-65" d="M178.21,228.75l5.11-22.3,15.78,2.87S151.5,125,151.56,121.8c0,0-24.72,5.87-8.31,35.14C160.23,187.22,178.21,228.75,178.21,228.75Z"/><path class="cls-65" d="M137.54,139.07s4.71-18.89,26.57-18.95c0,0,21.64-1.41,25.66,11.9,0,0-3.7-18.44-13.92-28.92,0,0-5.28-7-16.7-5.33,0,0-15.14,1.4-18,11.48Z"/><g class="cls-67"><path class="cls-65" d="M122,206.74l16.1.83,2.75,19.58S204,138.46,187,126.61c0,0-7.26-8-11.28-6.26,0,0-29.53,46.28-33.23,52.89s-20.65,33.39-20.65,33.39"/><g class="cls-68"><g class="cls-69"><rect class="cls-70" x="138.29" y="104.38" width="9.56" height="244" transform="translate(-8.03 5.28) rotate(-2.06)"/></g><g class="cls-71"><rect class="cls-70" x="163.79" y="42.57" width="3.33" height="244" transform="translate(-5.8 6.04) rotate(-2.06)"/></g><g class="cls-72"><rect class="cls-70" x="117.66" y="135.64" width="12.72" height="14.67" transform="translate(-5.05 4.54) rotate(-2.06)"/></g><g class="cls-73"><rect class="cls-70" x="118.54" y="160.97" width="12.72" height="12.89" transform="translate(-5.93 4.59) rotate(-2.06)"/></g><g class="cls-74"><rect class="cls-70" x="120.69" y="221.55" width="12.72" height="11.96" transform="translate(-8.08 4.7) rotate(-2.06)"/></g><g class="cls-75"><rect class="cls-70" x="121.37" y="238.74" width="12.72" height="15.33" transform="translate(-8.76 4.74) rotate(-2.06)"/></g><g class="cls-76"><rect class="cls-70" x="122.95" y="259.64" width="12.72" height="61.48" transform="translate(-10.33 4.83) rotate(-2.06)"/></g><g class="cls-77"><rect class="cls-70" x="120.03" y="201.84" width="12.72" height="14.11" transform="translate(-7.41 4.67) rotate(-2.06)"/></g><g class="cls-78"><rect class="cls-70" x="119.29" y="181.85" width="12.72" height="13.34" transform="translate(-6.68 4.63) rotate(-2.06)"/></g><g class="cls-79"><rect class="cls-70" x="116.63" y="100.35" width="12.72" height="27.75" transform="translate(-4.02 4.49) rotate(-2.06)"/></g><g class="cls-80"><rect class="cls-65" x="191.08" y="222.25" width="0.85" height="2.24" transform="translate(-7.89 7.01) rotate(-2.06)"/><rect class="cls-65" x="191.25" y="226.72" width="0.85" height="2.24" transform="translate(-8.05 7.02) rotate(-2.06)"/><rect class="cls-65" x="190.6" y="208.82" width="0.85" height="2.24" transform="matrix(1, -0.04, 0.04, 1, -7.41, 6.99)"/><rect class="cls-65" x="190.76" y="213.3" width="0.85" height="2.24" transform="translate(-7.57 7) rotate(-2.06)"/><rect class="cls-65" x="190.92" y="217.77" width="0.85" height="2.24" transform="translate(-7.73 7.01) rotate(-2.06)"/><polygon class="cls-65" points="191.34 206.57 190.48 206.6 190.45 205.7 189.81 205.12 190.36 204.42 191.29 205.26 191.34 206.57"/><path class="cls-65" d="M188.2,203.66l-1.62-1.47.55-.7,1.62,1.46ZM185,200.73l-1.61-1.47.55-.7,1.61,1.47Zm-3.22-2.93-1.62-1.46.55-.71,1.61,1.47Z"/><polygon class="cls-65" points="178.52 194.87 177.59 194.03 177.54 192.72 178.4 192.69 178.43 193.59 179.07 194.17 178.52 194.87"/><rect class="cls-65" x="177.26" y="183.76" width="0.85" height="2.24" transform="translate(-6.52 6.49) rotate(-2.06)"/><rect class="cls-65" x="177.42" y="188.23" width="0.85" height="2.24" transform="translate(-6.68 6.5) rotate(-2.06)"/><rect class="cls-65" x="177.1" y="179.28" width="0.85" height="2.24" transform="translate(-6.36 6.49) rotate(-2.06)"/><rect class="cls-65" x="176.62" y="165.86" width="0.85" height="2.24" transform="translate(-5.88 6.46) rotate(-2.06)"/><rect class="cls-65" x="176.94" y="174.81" width="0.85" height="2.24" transform="matrix(1, -0.04, 0.04, 1, -6.2, 6.48)"/><rect class="cls-65" x="176.78" y="170.33" width="0.85" height="2.24" transform="translate(-6.04 6.47) rotate(-2.06)"/><rect class="cls-65" x="176.27" y="156.14" width="0.85" height="2.24" transform="translate(-5.53 6.44) rotate(-2.06)"/><rect class="cls-65" x="176.43" y="160.61" width="0.85" height="2.24" transform="translate(-5.69 6.45) rotate(-2.06)"/><rect class="cls-65" x="176.11" y="151.66" width="0.85" height="2.24" transform="translate(-5.37 6.43) rotate(-2.06)"/><rect class="cls-65" x="175.63" y="138.24" width="0.85" height="2.24" transform="translate(-4.89 6.41) rotate(-2.06)"/><rect class="cls-65" x="175.95" y="147.19" width="0.85" height="2.24" transform="translate(-5.21 6.42) rotate(-2.06)"/><rect class="cls-65" x="175.79" y="142.71" width="0.85" height="2.24" transform="translate(-5.05 6.41) rotate(-2.06)"/><rect class="cls-65" x="175.32" y="129.61" width="0.85" height="2.24" transform="translate(-4.58 6.39) rotate(-2.06)"/><rect class="cls-65" x="175.48" y="134.08" width="0.85" height="2.24" transform="translate(-4.74 6.4) rotate(-2.06)"/><rect class="cls-65" x="175.16" y="125.14" width="0.85" height="2.24" transform="translate(-4.42 6.38) rotate(-2.06)"/><rect class="cls-65" x="174.67" y="111.71" width="0.85" height="2.24" transform="translate(-3.94 6.35) rotate(-2.06)"/><rect class="cls-65" x="175" y="120.66" width="0.85" height="2.24" transform="translate(-4.26 6.37) rotate(-2.06)"/><rect class="cls-65" x="174.84" y="116.19" width="0.85" height="2.24" transform="translate(-4.1 6.36) rotate(-2.06)"/></g><polygon class="cls-65" points="199.7 230.71 198.75 230.74 197.77 203.34 188.78 194.13 185.26 96.3 165.66 81.57 163.47 20.34 166.03 20.25 168.18 80.32 186.17 95.11 189.71 193.82 198.71 203.03 199.7 230.71"/><path class="cls-65" d="M200.79,163.26a3.57,3.57,0,1,1,3.43-3.69A3.58,3.58,0,0,1,200.79,163.26Zm-.23-6.28a2.72,2.72,0,1,0,2.81,2.62A2.72,2.72,0,0,0,200.56,157Z"/><rect class="cls-65" x="201.01" y="162.98" width="0.85" height="36.97" transform="translate(-6.38 7.34) rotate(-2.06)"/><g class="cls-81"><path class="cls-65" d="M163.09,151.05c-.27-7.52-1.16-32.36-1.42-39.93l1,0c.26,7.57,1.14,32.41,1.41,39.93Z"/><path class="cls-65" d="M164.06,162.46a4.88,4.88,0,1,1,4.71-5.05A4.89,4.89,0,0,1,164.06,162.46Zm-.24-6.93a2.05,2.05,0,1,0,2.12,2A2.05,2.05,0,0,0,163.82,155.53Z"/></g><g class="cls-81"><path class="cls-65" d="M183.23,142.58a3.57,3.57,0,1,1-3.43,3.7A3.57,3.57,0,0,1,183.23,142.58Zm.23,6.28a2.71,2.71,0,1,0-2.81-2.61A2.71,2.71,0,0,0,183.46,148.86Z"/><rect class="cls-65" x="182.37" y="105.88" width="0.85" height="36.97" transform="translate(-4.34 6.64) rotate(-2.06)"/></g><path class="cls-65" d="M200.38,151.89a3.57,3.57,0,1,1,3.44-3.69A3.56,3.56,0,0,1,200.38,151.89Zm-.23-6.27a2.71,2.71,0,1,0,2.81,2.61A2.71,2.71,0,0,0,200.15,145.62Z"/><path class="cls-65" d="M131.51,156.32l-.85,0v-.15l.86,0Zm-.08-2.2-.85,0-.07-2.05.85,0Zm-.15-4.1-.85,0-.07-2.05.85,0Zm-.14-4.09-.86,0-.07-2.05.85,0Zm-.15-4.1-.85,0-.08-2.05.86,0Zm-.15-4.1-.85,0-.07-2,.85,0Zm-.14-4.09-.86,0-.07-2,.85,0Zm-.15-4.1-.85,0-.08-2,.86,0Zm-.15-4.1-.85,0-.07-2,.85,0Zm-.14-4.09-.86,0-.07-2,.85,0Zm-.15-4.1-.85,0-.08-2,.85,0Z"/><path class="cls-65" d="M132.83,193.18l-.85,0v-.15l.85,0Zm-.07-2.2-.86,0-.07-2,.85,0Zm-.15-4.1-.86,0-.07-2,.85,0Zm-.15-4.09-.85,0-.08-2,.86,0Zm-.15-4.1-.85,0-.07-2.05.85,0Zm-.14-4.1-.86,0-.07-2,.85,0ZM132,170.5l-.85,0-.08-2.05.86,0Zm-.15-4.1-.85,0-.07-2.05.85,0Zm-.14-4.1-.86,0-.07-2.05.85,0Zm-.15-4.09-.85,0-.08-2.05.86,0Zm-.15-4.1-.85,0-.08-2,.86,0Z"/><rect class="cls-65" x="132.3" y="201.04" width="0.85" height="2.05" transform="translate(-7.16 4.89) rotate(-2.06)"/><rect class="cls-65" x="132.15" y="196.95" width="0.85" height="2.05" transform="translate(-7.02 4.88) rotate(-2.06)"/><rect class="cls-65" x="132.01" y="192.85" width="0.85" height="2.05" transform="translate(-6.87 4.88) rotate(-2.06)"/><rect class="cls-65" x="132.59" y="209.23" width="0.85" height="2.05" transform="translate(-7.46 4.91) rotate(-2.06)"/><rect class="cls-65" x="132.45" y="205.14" width="0.85" height="2.05" transform="translate(-7.31 4.9) rotate(-2.06)"/><rect class="cls-65" x="132.74" y="213.33" width="0.85" height="2.05" transform="matrix(1, -0.04, 0.04, 1, -7.6, 4.92)"/><path class="cls-65" d="M166.4,198c-.36-9.86-.77-21.13-.77-21.13v-.16l11-13.39c-.12-3.13-1.36-37.76-2.26-61.44l.85,0c.93,24.38,2.25,61.11,2.26,61.6v.17l-11,13.38c.07,1.9.42,11.63.76,21Z"/><path class="cls-65" d="M167.12,204.78a3.57,3.57,0,1,1,3.43-3.7A3.57,3.57,0,0,1,167.12,204.78Zm-.23-6.28a2.71,2.71,0,1,0,2.81,2.62A2.72,2.72,0,0,0,166.89,198.5Z"/><circle class="cls-65" cx="166.99" cy="201.21" r="1.77"/><circle class="cls-65" cx="200.69" cy="159.72" r="1.53"/><rect class="cls-65" x="188.19" y="179.53" width="33.99" height="0.85" transform="translate(-62.71 232.08) rotate(-52.26)"/><rect class="cls-65" x="216.82" y="100.87" width="0.85" height="59.11" transform="translate(-4.54 7.88) rotate(-2.06)"/><circle class="cls-65" cx="218" cy="163.63" r="1.53"/><path class="cls-65" d="M148.52,156l-20.38,75.11,43-1.54Z"/><path class="cls-82" d="M202.2,138.43a.61.61,0,0,1,0-1.22.6.6,0,0,1,.63.59A.61.61,0,0,1,202.2,138.43Z"/><path class="cls-82" d="M202.12,136.3a.62.62,0,0,1,0-1.23.61.61,0,0,1,.63.59A.61.61,0,0,1,202.12,136.3Z"/><path class="cls-82" d="M202.05,134.16a.62.62,0,0,1-.64-.59.62.62,0,1,1,.64.59Z"/><path class="cls-82" d="M202,132a.62.62,0,0,1,0-1.23.61.61,0,0,1,.63.59A.62.62,0,0,1,202,132Z"/><path class="cls-82" d="M202.52,147.39a.61.61,0,0,1-.63-.59.61.61,0,0,1,.59-.63.61.61,0,0,1,0,1.22Z"/><path class="cls-82" d="M202.45,145.26a.62.62,0,0,1-.64-.59.61.61,0,0,1,.59-.63.61.61,0,0,1,.64.58A.62.62,0,0,1,202.45,145.26Z"/><path class="cls-82" d="M202.37,143.12a.61.61,0,0,1,0-1.22.61.61,0,0,1,.63.59A.61.61,0,0,1,202.37,143.12Z"/><circle class="cls-82" cx="202.27" cy="140.38" r="0.61"/><path class="cls-82" d="M160.59,185.9a.6.6,0,0,1-.63-.58.61.61,0,1,1,.63.58Z"/><path class="cls-82" d="M160.51,183.77a.61.61,0,0,1-.63-.59.61.61,0,0,1,.59-.63.6.6,0,0,1,.63.59A.61.61,0,0,1,160.51,183.77Z"/><circle class="cls-82" cx="160.41" cy="181.02" r="0.61"/><path class="cls-82" d="M160.36,179.5a.61.61,0,0,1-.63-.59.6.6,0,0,1,.59-.63.61.61,0,1,1,0,1.22Z"/><circle class="cls-82" cx="160.89" cy="194.26" r="0.61"/><path class="cls-82" d="M160.83,192.73a.61.61,0,0,1-.63-.59.61.61,0,0,1,.59-.63.61.61,0,0,1,.63.59A.6.6,0,0,1,160.83,192.73Z"/><path class="cls-82" d="M160.76,190.6a.62.62,0,0,1-.64-.59.62.62,0,1,1,.64.59Z"/><path class="cls-82" d="M160.68,188.46a.6.6,0,0,1-.63-.59.61.61,0,0,1,.59-.63.61.61,0,1,1,0,1.22Z"/><path class="cls-65" d="M116.11,218.87l-.35,0-.68-18.74,0-.06,8.39-9c-.83-26.89-2.48-77.93-2.82-79.06a.18.18,0,0,0,.12.1l0-.17-.13-.12.19,0c.15,0,.18.06.35,3.6.1,2.06.22,5.09.37,9,.26,6.58.58,15.73,1,27.22.65,19.56,1.26,39.35,1.27,39.54v.08l-.05.05-8.38,9Z"/><g class="cls-81"><path class="cls-65" d="M148.28,138.88a3.7,3.7,0,1,1,3.57-3.83A3.7,3.7,0,0,1,148.28,138.88Zm-.23-6.5a2.81,2.81,0,1,0,2.91,2.71A2.81,2.81,0,0,0,148.05,132.38Z"/><rect class="cls-65" x="148.3" y="138.6" width="0.88" height="38.31" transform="matrix(1, -0.04, 0.04, 1, -5.56, 5.44)"/><circle class="cls-65" cx="148.19" cy="135.2" r="1.45" transform="translate(-13.27 254.24) rotate(-78.77)"/><path class="cls-83" d="M154.51,135.11a6.27,6.27,0,0,1-12.44,1.42,7.57,7.57,0,0,1-.11-1,6.28,6.28,0,1,1,12.55-.45Z"/><path class="cls-84" d="M151.83,135.2a3.46,3.46,0,0,1,0,.56,3.58,3.58,0,0,1-7.1.26,5,5,0,0,1-.06-.56,3.59,3.59,0,1,1,7.18-.26Z"/><path class="cls-65" d="M149.15,135.3a.66.66,0,0,1,0,.14.9.9,0,0,1-1.79.06s0-.09,0-.14a.93.93,0,0,1,.88-1A.92.92,0,0,1,149.15,135.3Z"/><path class="cls-83" d="M146.26,146.39a6.28,6.28,0,1,1-6.51-6.24A6.38,6.38,0,0,1,146.26,146.39Z"/><path class="cls-84" d="M143.57,146.49a3.5,3.5,0,0,1,0,.56,3.58,3.58,0,0,1-7.1.25,5,5,0,0,1-.06-.56,3.59,3.59,0,1,1,7.18-.25Z"/><path class="cls-65" d="M140.89,146.58a.61.61,0,0,1,0,.14.92.92,0,0,1-.86.83.93.93,0,0,1-.93-.76s0-.09,0-.14a.91.91,0,1,1,1.81-.07Z"/><path class="cls-83" d="M209.2,244.47a17.44,17.44,0,0,1-.08,2.18,13.87,13.87,0,0,1-27.52,1,15.49,15.49,0,0,1-.24-2.17,13.93,13.93,0,1,1,27.84-1Z"/><path class="cls-84" d="M203.24,244.69a8.52,8.52,0,0,1,0,1.24,7.94,7.94,0,0,1-15.75.57,10.23,10.23,0,0,1-.14-1.24,8,8,0,1,1,15.93-.57Z"/><path class="cls-65" d="M197.29,244.9c0,.11,0,.21,0,.31a2,2,0,0,1-4,.15,1.73,1.73,0,0,1,0-.32,2,2,0,1,1,4-.14Z"/></g><path class="cls-83" d="M171,157.49a6.87,6.87,0,0,1,0,1.11,7.08,7.08,0,0,1-14,.5,8,8,0,0,1-.12-1.1,7.11,7.11,0,1,1,14.2-.51Z"/><path class="cls-84" d="M168,157.59a4.52,4.52,0,0,1,0,.64,4,4,0,0,1-8,.29,4.5,4.5,0,0,1-.07-.63,4.06,4.06,0,1,1,8.12-.3Z"/><path class="cls-65" d="M165,157.7a.81.81,0,0,1,0,.16,1,1,0,0,1-1,.94,1.06,1.06,0,0,1-1-.86.86.86,0,0,1,0-.16,1,1,0,1,1,2.05-.08Z"/><path class="cls-65" d="M86.19,190.79,75.61,229.35,29.22,231,88.72,38.81l53.22-1.91,67.14,187.66L160.7,226.3l-11.61-37.77ZM115.85,80.3,95.47,155.4l43-1.54Z"/><g class="cls-85"><rect class="cls-70" x="211.2" y="69.76" width="9.56" height="244" transform="translate(-6.74 7.87) rotate(-2.06)"/></g><g class="cls-86"><rect class="cls-70" x="136.24" y="145.39" width="3.33" height="244" transform="translate(-9.5 5.12) rotate(-2.06)"/></g><g class="cls-87"><rect class="cls-70" x="120.77" y="91.82" width="12.72" height="14.67" transform="translate(-3.48 4.62) rotate(-2.06)"/></g><g class="cls-88"><rect class="cls-70" x="121.65" y="117.15" width="12.72" height="12.89" transform="translate(-4.35 4.67) rotate(-2.06)"/></g><g class="cls-89"><rect class="cls-70" x="123.8" y="177.73" width="12.72" height="11.96" transform="translate(-6.51 4.79) rotate(-2.06)"/></g><g class="cls-90"><rect class="cls-70" x="124.48" y="194.92" width="12.72" height="15.33" transform="translate(-7.18 4.82) rotate(-2.06)"/></g><g class="cls-91"><rect class="cls-70" x="126.06" y="215.82" width="12.72" height="61.48" transform="translate(-8.76 4.91) rotate(-2.06)"/></g><g class="cls-92"><rect class="cls-70" x="123.14" y="158.02" width="12.72" height="14.11" transform="translate(-5.84 4.75) rotate(-2.06)"/></g><g class="cls-93"><rect class="cls-70" x="122.4" y="138.03" width="12.72" height="13.34" transform="translate(-5.11 4.71) rotate(-2.06)"/></g><g class="cls-94"><rect class="cls-70" x="119.74" y="56.53" width="12.72" height="27.75" transform="translate(-2.44 4.57) rotate(-2.06)"/></g><path class="cls-65" d="M209,166.44c-.36-9.87-.77-21.14-.77-21.14v-.16l11-13.38c-.11-3.13-1.36-37.77-2.26-61.45l.86,0c.92,24.38,2.24,61.12,2.26,61.61v.16l-11,13.38c.07,1.9.42,11.63.76,21Z"/><path class="cls-65" d="M209.69,173.2a3.57,3.57,0,1,1,3.44-3.69A3.57,3.57,0,0,1,209.69,173.2Zm-.22-6.28a2.72,2.72,0,1,0,2.8,2.62A2.73,2.73,0,0,0,209.47,166.92Z"/><circle class="cls-65" cx="209.56" cy="169.64" r="1.77"/><path class="cls-65" d="M191.09,124.45l-20.38,75.1,43-1.54Z"/><g class="cls-80"><polygon class="cls-65" points="212.57 202.58 215.02 205.67 217.23 202.41 212.57 202.58"/><polygon class="cls-65" points="212.42 198.22 214.86 201.31 217.07 198.05 212.42 198.22"/><polygon class="cls-65" points="212.26 193.85 214.7 196.94 216.92 193.68 212.26 193.85"/><polygon class="cls-65" points="212.1 189.49 214.55 192.57 216.76 189.32 212.1 189.49"/><polygon class="cls-65" points="211.95 185.12 214.39 188.21 216.6 184.95 211.95 185.12"/></g><path class="cls-65" d="M147.55,236.08l-.35,0-.67-18.74.05-.05,8.39-9c-.83-26.9-2.49-77.94-2.82-79.07a.16.16,0,0,0,.11.1l0-.17-.13-.12.19,0c.15.05.18.07.36,3.6.09,2.06.22,5.09.37,9,.25,6.58.58,15.74,1,27.22.65,19.56,1.26,39.35,1.27,39.55v.07l0,0-8.39,9Z"/><polygon class="cls-65" points="144.92 236.18 144.57 236.19 143.32 201.23 148.06 196.37 146.06 140.65 146.41 140.64 148.41 196.51 143.67 201.37 144.92 236.18"/><polygon class="cls-65" points="142.29 236.27 141.95 236.29 141.02 210.45 135.45 203.96 133.31 144.12 133.65 144.1 135.8 203.83 141.36 210.31 142.29 236.27"/><polygon class="cls-65" points="139.67 236.37 139.32 236.38 139 222.47 131.62 215.6 130.78 192.29 131.13 192.28 131.96 215.45 139.34 222.32 139.34 222.39 139.67 236.37"/><path class="cls-65" d="M119.24,307.06l-10.58,38.56-46.39,1.67,59.5-192.2L175,153.17l67.15,187.66-48.39,1.74L182.14,304.8ZM148.9,196.57l-20.38,75.11,43-1.55Z"/></g></g><path class="cls-65" d="M178.28,228.75l5.09-22.23,15.73,2.86s-47.44-84-47.39-87.23c0,0-24.64,5.85-8.28,35C160.35,187.36,178.28,228.75,178.28,228.75Z"/><g class="cls-95"><g class="cls-96"><rect class="cls-70" x="139.21" y="103.09" width="6.3" height="160.81" transform="translate(-6.49 5.23) rotate(-2.06)"/></g><g class="cls-97"><rect class="cls-70" x="176.38" y="113.83" width="2.19" height="160.81" transform="matrix(1, -0.04, 0.04, 1, -6.85, 6.49)"/></g><g class="cls-80"><rect class="cls-65" x="174.01" y="180.78" width="0.56" height="1.48" transform="matrix(1, -0.04, 0.04, 1, -6.4, 6.37)"/><rect class="cls-65" x="174.11" y="183.73" width="0.56" height="1.48" transform="matrix(1, -0.04, 0.04, 1, -6.51, 6.38)"/><rect class="cls-65" x="173.69" y="171.93" width="0.56" height="1.48" transform="matrix(1, -0.04, 0.04, 1, -6.08, 6.35)"/><rect class="cls-65" x="173.8" y="174.88" width="0.56" height="1.48" transform="translate(-6.19 6.36) rotate(-2.06)"/><rect class="cls-65" x="173.9" y="177.83" width="0.56" height="1.48" transform="translate(-6.29 6.36) rotate(-2.06)"/><polygon class="cls-65" points="174.17 170.44 173.61 170.47 173.59 169.87 173.17 169.49 173.53 169.03 174.14 169.58 174.17 170.44"/><path class="cls-65" d="M172.1,168.52l-1.06-1,.36-.46,1.07,1ZM170,166.59l-1.06-1,.36-.46,1.06,1Zm-2.13-1.92-1.06-1,.36-.46,1.06,1Z"/><polygon class="cls-65" points="165.73 162.74 165.11 162.18 165.08 161.32 165.64 161.3 165.67 161.89 166.09 162.27 165.73 162.74"/><rect class="cls-65" x="164.9" y="155.41" width="0.56" height="1.48" transform="translate(-5.5 6.03) rotate(-2.06)"/><rect class="cls-65" x="165" y="158.36" width="0.56" height="1.48" transform="translate(-5.6 6.03) rotate(-2.06)"/><rect class="cls-65" x="164.79" y="152.46" width="0.56" height="1.48" transform="translate(-5.39 6.02) rotate(-2.06)"/><rect class="cls-65" x="164.47" y="143.61" width="0.56" height="1.48" transform="translate(-5.07 6) rotate(-2.06)"/><rect class="cls-65" x="164.68" y="149.51" width="0.56" height="1.48" transform="translate(-5.28 6.02) rotate(-2.06)"/><rect class="cls-65" x="164.58" y="146.56" width="0.56" height="1.48" transform="translate(-5.18 6.01) rotate(-2.06)"/><rect class="cls-65" x="164.24" y="137.21" width="0.56" height="1.48" transform="translate(-4.84 5.99) rotate(-2.06)"/><rect class="cls-65" x="164.35" y="140.15" width="0.56" height="1.48" transform="translate(-4.95 6) rotate(-2.06)"/><rect class="cls-65" x="164.14" y="134.26" width="0.56" height="1.48" transform="translate(-4.74 5.99) rotate(-2.06)"/><rect class="cls-65" x="163.82" y="125.41" width="0.56" height="1.48" transform="translate(-4.42 5.97) rotate(-2.06)"/><rect class="cls-65" x="164.03" y="131.31" width="0.56" height="1.48" transform="translate(-4.63 5.98) rotate(-2.06)"/><rect class="cls-65" x="163.93" y="128.36" width="0.56" height="1.48" transform="translate(-4.53 5.97) rotate(-2.06)"/><rect class="cls-65" x="163.62" y="119.72" width="0.56" height="1.48" transform="translate(-4.22 5.96) rotate(-2.06)"/><rect class="cls-65" x="163.72" y="122.67" width="0.56" height="1.48" transform="translate(-4.32 5.96) rotate(-2.06)"/><rect class="cls-65" x="163.51" y="116.77" width="0.56" height="1.48" transform="translate(-4.11 5.95) rotate(-2.06)"/><rect class="cls-65" x="163.19" y="107.93" width="0.56" height="1.48" transform="matrix(1, -0.04, 0.04, 1, -3.79, 5.93)"/><rect class="cls-65" x="163.4" y="113.82" width="0.56" height="1.48" transform="translate(-4 5.95) rotate(-2.06)"/><rect class="cls-65" x="163.3" y="110.88" width="0.56" height="1.48" transform="translate(-3.9 5.94) rotate(-2.06)"/></g><path class="cls-65" d="M164.72,241.5l-.56,0c-.21-6.73-.45-13.59-.73-20.38l.56,0C164.27,227.91,164.52,234.77,164.72,241.5Z"/><path class="cls-65" d="M167.56,196l0,.85c-6.92.23-15.31.53-22.09.78-2,2-3.9,4.12-5.77,6.17L136.81,207l-.12.12h-.18l-58,2.08,0-.85,57.81-2.07c.94-1,1.88-2,2.79-3C141,201.12,143,199,145,196.9l.11-.12h.17Z"/><polygon class="cls-65" points="179.69 186.35 179.06 186.38 178.41 168.32 172.49 162.25 170.17 97.77 157.25 88.06 155.81 47.7 157.49 47.65 158.91 87.24 170.76 96.98 173.1 162.04 179.03 168.11 179.69 186.35"/><path class="cls-82" d="M137.05,194.07a2.35,2.35,0,1,1,2.27-2.43A2.35,2.35,0,0,1,137.05,194.07Zm-.15-4.13a1.79,1.79,0,1,0,1.86,1.72A1.79,1.79,0,0,0,136.9,189.94Z"/><rect class="cls-65" x="145.44" y="217.6" width="0.56" height="43.18" transform="matrix(1, -0.04, 0.04, 1, -8.49, 5.38)"/><path class="cls-65" d="M144.77,218.15a2.35,2.35,0,1,1,2.26-2.44A2.35,2.35,0,0,1,144.77,218.15Zm-.15-4.14a1.79,1.79,0,1,0,1.85,1.72A1.79,1.79,0,0,0,144.62,214Z"/><path class="cls-65" d="M180.4,141.9a2.35,2.35,0,1,1,2.27-2.43A2.35,2.35,0,0,1,180.4,141.9Zm-.15-4.14a1.79,1.79,0,1,0,1.85,1.73A1.8,1.8,0,0,0,180.25,137.76Z"/><path class="cls-65" d="M167.56,194.21,123,195.81l0-.56,44.55-1.6Z"/><path class="cls-65" d="M123.2,195.49a2.35,2.35,0,1,1-2.44-2.27A2.36,2.36,0,0,1,123.2,195.49Zm-4.14.14a1.79,1.79,0,1,0,1.72-1.85A1.8,1.8,0,0,0,119.06,195.63Z"/><path class="cls-65" d="M180.33,204.58c.64,17.61,1,28.36,1.65,46l-.56,0c-.63-17.64-1-28.39-1.65-46Z"/><rect class="cls-65" x="180.55" y="141.72" width="0.56" height="24.37" transform="translate(-5.41 6.59) rotate(-2.06)"/><g class="cls-81"><path class="cls-65" d="M155.55,133.85c-.17-4.95-.76-21.32-.93-26.31l.65,0c.17,5,.76,21.36.93,26.31Z"/><path class="cls-65" d="M156.2,141.37a3.22,3.22,0,1,1,3.1-3.33A3.21,3.21,0,0,1,156.2,141.37Zm-.16-4.56a1.35,1.35,0,1,0,1.39,1.3A1.34,1.34,0,0,0,156,136.81Z"/></g><g class="cls-81"><path class="cls-65" d="M168.83,128.27a2.35,2.35,0,1,1-2.26,2.44A2.36,2.36,0,0,1,168.83,128.27Zm.15,4.14a1.79,1.79,0,1,0-1.85-1.72A1.79,1.79,0,0,0,169,132.41Z"/><rect class="cls-65" x="168.26" y="104.08" width="0.56" height="24.37" transform="translate(-4.06 6.12) rotate(-2.06)"/></g><path class="cls-65" d="M180.13,134.41A2.35,2.35,0,1,1,182.4,132,2.36,2.36,0,0,1,180.13,134.41Zm-.15-4.14a1.79,1.79,0,1,0,1.86,1.72A1.8,1.8,0,0,0,180,130.27Z"/><circle class="cls-65" cx="150.51" cy="204.57" r="2.07"/><path class="cls-65" d="M150.67,209A4.48,4.48,0,1,1,155,204.4,4.49,4.49,0,0,1,150.67,209Zm-.3-8.38a3.91,3.91,0,1,0,4,3.77A3.92,3.92,0,0,0,150.37,200.66Z"/><path class="cls-83" d="M157.54,204.19a7.74,7.74,0,0,1,0,1.08,6.89,6.89,0,0,1-13.66.49,6.38,6.38,0,0,1-.12-1.08,6.92,6.92,0,1,1,13.82-.49Z"/><path class="cls-84" d="M154.58,204.29a4.24,4.24,0,0,1,0,.62,3.94,3.94,0,0,1-7.82.28,4.07,4.07,0,0,1,3.74-4.83A4,4,0,0,1,154.58,204.29Z"/><path class="cls-65" d="M151.63,204.4a.92.92,0,0,1,0,.16,1,1,0,0,1-1,.9,1,1,0,0,1-1-.83.88.88,0,0,1,0-.16,1,1,0,1,1,2-.07Z"/><path class="cls-65" d="M157.74,164.81c-.24-6.51-.51-13.93-.51-13.93v-.11l7.23-8.82c-.08-2.06-.9-24.89-1.49-40.5l.56,0c.61,16.07,1.48,40.28,1.49,40.6v.11L157.8,151c0,1.25.27,7.67.5,13.83Z"/><path class="cls-65" d="M158.21,169.26a2.35,2.35,0,1,1,2.27-2.43A2.35,2.35,0,0,1,158.21,169.26Zm-.15-4.13a1.79,1.79,0,1,0,1.85,1.72A1.78,1.78,0,0,0,158.06,165.13Z"/><circle class="cls-65" cx="158.13" cy="166.91" r="1.17"/><circle class="cls-65" cx="180.34" cy="139.57" r="1.01"/><path class="cls-65" d="M168.59,175.58a2.35,2.35,0,1,1,2.26-2.43A2.36,2.36,0,0,1,168.59,175.58Zm-.15-4.13a1.79,1.79,0,1,0,1.85,1.72A1.79,1.79,0,0,0,168.44,171.45Z"/><circle class="cls-65" cx="168.5" cy="173.23" r="1.06"/><path class="cls-65" d="M186.46,204.55l-18.67.67-.67-18.67,18.67-.67Zm-18.11.07,17.51-.63-.63-17.51-17.51.63Z"/><path class="cls-65" d="M186.46,204.55l-18.67.67-.67-18.67,18.67-.67Zm-18.11.07,17.51-.63-.63-17.51-17.51.63Z"/><path class="cls-65" d="M184.36,202.59l-14.61.53-.53-14.62,14.62-.52Zm-14.05-.07,13.45-.49-.48-13.45-13.46.49Z"/><g class="cls-98"><rect class="cls-65" x="161.83" y="203.39" width="1.35" height="0.56" transform="translate(-7.2 5.96) rotate(-2.06)"/><rect class="cls-65" x="159.13" y="203.49" width="1.35" height="0.56" transform="translate(-7.21 5.86) rotate(-2.06)"/><rect class="cls-65" x="156.43" y="203.59" width="1.35" height="0.56" transform="translate(-7.21 5.77) rotate(-2.06)"/><rect class="cls-65" x="164.53" y="203.3" width="1.35" height="0.56" transform="translate(-7.2 6.06) rotate(-2.06)"/></g><polygon class="cls-99" points="165.66 187.51 164.42 187.56 164.3 183.99 167.93 183.86 167.97 185.09 165.57 185.18 165.66 187.51"/><polygon class="cls-99" points="162.99 184.96 161.76 185 161.63 181.44 165.26 181.31 165.31 182.54 162.91 182.63 162.99 184.96"/><polygon class="cls-99" points="190.04 207.78 185.07 207.96 185.01 206.28 188.29 206.16 188.18 202.97 189.87 202.91 190.04 207.78"/><polygon class="cls-99" points="193.2 210.72 188.22 210.9 188.16 209.21 191.45 209.1 191.34 205.91 193.03 205.84 193.2 210.72"/><rect class="cls-65" x="172.1" y="152.62" width="22.41" height="0.56" transform="translate(-49.81 204.28) rotate(-52.26)"/><rect class="cls-65" x="190.97" y="100.78" width="0.56" height="38.96" transform="translate(-4.19 6.94) rotate(-2.06)"/><circle class="cls-65" cx="191.75" cy="142.15" r="1.01"/><path class="cls-65" d="M146,137.13l-13.43,49.5,28.32-1Z"/><g class="cls-80"><polygon class="cls-65" points="183.54 173.87 182.12 172.07 180.83 173.97 183.54 173.87"/><polygon class="cls-65" points="183.63 176.41 182.21 174.61 180.92 176.51 183.63 176.41"/><polygon class="cls-65" points="183.73 178.96 182.3 177.16 181.01 179.06 183.73 178.96"/><polygon class="cls-65" points="183.82 181.51 182.39 179.71 181.1 181.6 183.82 181.51"/><polygon class="cls-65" points="183.91 184.05 182.49 182.25 181.19 184.15 183.91 184.05"/></g><g class="cls-80"><polygon class="cls-65" points="139.57 232.57 141.18 234.61 142.64 232.47 139.57 232.57"/><polygon class="cls-65" points="139.47 229.7 141.08 231.73 142.54 229.59 139.47 229.7"/><polygon class="cls-65" points="139.37 226.82 140.97 228.86 142.43 226.71 139.37 226.82"/><polygon class="cls-65" points="139.26 223.94 140.87 225.98 142.33 223.83 139.26 223.94"/><polygon class="cls-65" points="139.16 221.07 140.77 223.1 142.23 220.96 139.16 221.07"/></g><g class="cls-80"><polygon class="cls-65" points="153.31 189.72 151.51 191.14 153.41 192.44 153.31 189.72"/><polygon class="cls-65" points="155.86 189.63 154.06 191.05 155.96 192.34 155.86 189.63"/><polygon class="cls-65" points="158.41 189.54 156.6 190.96 158.5 192.25 158.41 189.54"/><polygon class="cls-65" points="160.95 189.45 159.15 190.87 161.05 192.16 160.95 189.45"/><polygon class="cls-65" points="163.5 189.35 161.7 190.78 163.59 192.07 163.5 189.35"/></g><rect class="cls-65" x="191.6" y="218.68" width="0.61" height="15.6" transform="translate(-8 7.03) rotate(-2.06)"/><polygon class="cls-65" points="188.27 215.83 175.29 216.29 174.88 204.73 175.49 204.71 175.88 215.66 188.25 215.22 188.27 215.83"/><path class="cls-65" d="M191.45,218.12a2.3,2.3,0,1,1,2.22-2.38A2.3,2.3,0,0,1,191.45,218.12Zm-.14-4.05a1.75,1.75,0,1,0,1.81,1.69A1.75,1.75,0,0,0,191.31,214.07Z"/><circle class="cls-65" cx="191.37" cy="215.82" r="1.04"/><rect class="cls-65" x="153.73" y="172.69" width="11.2" height="0.61" transform="translate(-6.1 5.83) rotate(-2.06)"/><rect class="cls-65" x="169.08" y="176.64" width="0.61" height="10.19" transform="matrix(1, -0.04, 0.04, 1, -6.41, 6.19)"/><circle class="cls-65" cx="137" cy="191.67" r="1.06"/><path class="cls-82" d="M149.94,191.2a.59.59,0,0,1-.56.61.59.59,0,1,1,.56-.61Z"/><path class="cls-82" d="M147.91,191.28a.58.58,0,1,1-.6-.56A.58.58,0,0,1,147.91,191.28Z"/><path class="cls-82" d="M145.88,191.35a.58.58,0,1,1-.6-.56A.58.58,0,0,1,145.88,191.35Z"/><path class="cls-82" d="M143.86,191.42a.58.58,0,0,1-.56.6.57.57,0,0,1-.6-.56.57.57,0,0,1,.56-.6A.59.59,0,0,1,143.86,191.42Z"/><g class="cls-100"><path class="cls-82" d="M190,225.9a.41.41,0,1,1,0-.81.4.4,0,0,1,.41.39A.4.4,0,0,1,190,225.9Z"/><path class="cls-82" d="M189.94,224.49a.4.4,0,0,1-.42-.39.4.4,0,0,1,.8,0A.4.4,0,0,1,189.94,224.49Z"/><path class="cls-82" d="M189.88,223.09a.4.4,0,0,1-.41-.39.4.4,0,0,1,.39-.42.39.39,0,0,1,.41.39A.4.4,0,0,1,189.88,223.09Z"/><path class="cls-82" d="M189.83,221.68a.4.4,0,0,1-.41-.39.4.4,0,1,1,.41.39Z"/><path class="cls-82" d="M190.2,231.81a.42.42,0,0,1-.42-.39.41.41,0,0,1,.81,0A.42.42,0,0,1,190.2,231.81Z"/><path class="cls-82" d="M190.15,230.4a.4.4,0,0,1-.42-.39.41.41,0,0,1,.39-.42.41.41,0,0,1,0,.81Z"/><path class="cls-82" d="M190.1,229a.4.4,0,1,1,0-.8.4.4,0,0,1,.42.39A.41.41,0,0,1,190.1,229Z"/><path class="cls-82" d="M190.05,227.59a.41.41,0,0,1-.42-.39.4.4,0,1,1,.8,0A.4.4,0,0,1,190.05,227.59Z"/></g><path class="cls-82" d="M181.33,125.54a.4.4,0,0,1-.41-.39.4.4,0,1,1,.8,0A.4.4,0,0,1,181.33,125.54Z"/><path class="cls-82" d="M181.28,124.13a.4.4,0,0,1-.41-.39.4.4,0,1,1,.41.39Z"/><path class="cls-82" d="M181.23,122.72a.39.39,0,0,1-.41-.39.4.4,0,0,1,.38-.42.41.41,0,0,1,.42.39A.4.4,0,0,1,181.23,122.72Z"/><path class="cls-82" d="M181.18,121.31a.4.4,0,0,1-.42-.38.41.41,0,0,1,.39-.42.4.4,0,0,1,.42.39A.39.39,0,0,1,181.18,121.31Z"/><path class="cls-82" d="M181.55,131.44a.4.4,0,0,1-.42-.39.4.4,0,0,1,.8,0A.39.39,0,0,1,181.55,131.44Z"/><path class="cls-82" d="M181.5,130a.41.41,0,0,1-.42-.39.4.4,0,1,1,.8,0A.4.4,0,0,1,181.5,130Z"/><path class="cls-82" d="M181.45,128.63a.41.41,0,1,1,0-.81.4.4,0,0,1,.41.39A.4.4,0,0,1,181.45,128.63Z"/><circle class="cls-82" cx="181.38" cy="126.82" r="0.4"/><path class="cls-82" d="M153.91,156.83a.42.42,0,0,1-.42-.39.4.4,0,0,1,.39-.42.41.41,0,0,1,.42.39A.42.42,0,0,1,153.91,156.83Z"/><path class="cls-82" d="M153.86,155.42a.41.41,0,1,1,.39-.42A.42.42,0,0,1,153.86,155.42Z"/><circle class="cls-82" cx="153.79" cy="153.61" r="0.4"/><path class="cls-82" d="M153.76,152.6a.4.4,0,0,1-.42-.38.41.41,0,1,1,.42.38Z"/><circle class="cls-82" cx="154.11" cy="162.33" r="0.4"/><path class="cls-82" d="M154.07,161.33a.42.42,0,0,1-.42-.39.4.4,0,0,1,.39-.42.41.41,0,1,1,0,.81Z"/><path class="cls-82" d="M154,159.92a.41.41,0,1,1,.39-.42A.41.41,0,0,1,154,159.92Z"/><path class="cls-82" d="M154,158.51a.4.4,0,0,1-.42-.39.4.4,0,0,1,.39-.41.4.4,0,1,1,0,.8Z"/><rect class="cls-65" x="172.57" y="191.33" width="8.45" height="8.45" transform="translate(-6.9 6.47) rotate(-2.06)"/><path class="cls-65" d="M173.3,193l-1.74.07a.32.32,0,0,1-.32-.3h0a.31.31,0,0,1,.3-.32l1.74-.06a.3.3,0,0,1,.32.29h0A.31.31,0,0,1,173.3,193Z"/><path class="cls-65" d="M173.36,194.75l-1.73.06a.3.3,0,0,1-.32-.29h0a.31.31,0,0,1,.29-.33l1.74-.06a.32.32,0,0,1,.32.3h0A.31.31,0,0,1,173.36,194.75Z"/><path class="cls-65" d="M173.43,196.53l-1.74.06a.31.31,0,0,1-.32-.3h0a.31.31,0,0,1,.3-.32l1.73-.06a.31.31,0,0,1,.32.3h0A.3.3,0,0,1,173.43,196.53Z"/><path class="cls-65" d="M173.49,198.3l-1.74.07a.32.32,0,0,1-.32-.3h0a.31.31,0,0,1,.3-.32l1.74-.06a.3.3,0,0,1,.32.29h0A.31.31,0,0,1,173.49,198.3Z"/><path class="cls-65" d="M181.83,192.67l-1.74.06a.31.31,0,0,1-.32-.3h0a.31.31,0,0,1,.3-.32l1.73-.06a.31.31,0,0,1,.32.3h0A.3.3,0,0,1,181.83,192.67Z"/><path class="cls-65" d="M181.89,194.44l-1.74.07a.32.32,0,0,1-.32-.3h0a.31.31,0,0,1,.3-.32l1.74-.06a.3.3,0,0,1,.32.29h0A.31.31,0,0,1,181.89,194.44Z"/><path class="cls-65" d="M182,196.22l-1.73.06a.3.3,0,0,1-.32-.29h0a.31.31,0,0,1,.29-.33l1.74-.06a.32.32,0,0,1,.32.3h0A.31.31,0,0,1,182,196.22Z"/><path class="cls-65" d="M182,198l-1.74.06a.31.31,0,0,1-.32-.3h0a.31.31,0,0,1,.3-.32l1.73-.06a.31.31,0,0,1,.32.3h0A.3.3,0,0,1,182,198Z"/><path class="cls-65" d="M179.05,191.84,179,190.1a.31.31,0,0,1,.3-.32h0a.31.31,0,0,1,.32.3l.06,1.74a.31.31,0,0,1-.3.32h0A.32.32,0,0,1,179.05,191.84Z"/><path class="cls-65" d="M177.28,191.9l-.07-1.74a.32.32,0,0,1,.3-.32h0a.31.31,0,0,1,.32.3l.06,1.74a.3.3,0,0,1-.29.32h0A.31.31,0,0,1,177.28,191.9Z"/><path class="cls-65" d="M175.5,192l-.06-1.74a.31.31,0,0,1,.3-.32h0a.31.31,0,0,1,.32.3l.06,1.73a.31.31,0,0,1-.3.32h0A.3.3,0,0,1,175.5,192Z"/><path class="cls-65" d="M173.72,192l-.06-1.74a.31.31,0,0,1,.3-.32h0a.32.32,0,0,1,.32.3l.06,1.74a.31.31,0,0,1-.3.32h0A.32.32,0,0,1,173.72,192Z"/><path class="cls-65" d="M179.36,200.39l-.06-1.74a.3.3,0,0,1,.3-.32h0a.32.32,0,0,1,.32.3l.06,1.74a.32.32,0,0,1-.3.32h0A.32.32,0,0,1,179.36,200.39Z"/><path class="cls-65" d="M177.58,200.45l-.06-1.73a.31.31,0,0,1,.3-.32h0a.3.3,0,0,1,.32.29l.06,1.74a.31.31,0,0,1-.3.32h0A.31.31,0,0,1,177.58,200.45Z"/><path class="cls-65" d="M175.81,200.52l-.07-1.74a.32.32,0,0,1,.3-.32h0a.31.31,0,0,1,.32.3l.07,1.73a.31.31,0,0,1-.3.32h0A.3.3,0,0,1,175.81,200.52Z"/><path class="cls-65" d="M174,200.58l-.06-1.74a.31.31,0,0,1,.3-.32h0a.32.32,0,0,1,.32.3l.06,1.74a.32.32,0,0,1-.3.32h0A.32.32,0,0,1,174,200.58Z"/><path class="cls-65" d="M175.69,194l.54,0,1.33,3.07-.54,0-.31-.73-1.32,0-.26.75h-.53Zm-.13,1.89.94,0-.51-1.2Z"/><path class="cls-65" d="M177.86,194l.53,0,.12,3.11-.54,0Z"/><g class="cls-81"><path class="cls-65" d="M145.8,125.83a2.44,2.44,0,1,1,2.35-2.52A2.43,2.43,0,0,1,145.8,125.83Zm-.16-4.28a1.85,1.85,0,1,0,1.92,1.78A1.84,1.84,0,0,0,145.64,121.55Z"/><rect class="cls-65" x="145.81" y="125.65" width="0.58" height="25.25" transform="translate(-4.87 5.33) rotate(-2.06)"/><circle class="cls-65" cx="145.74" cy="123.41" r="0.95"/><path class="cls-83" d="M149.9,123.34a4.66,4.66,0,0,1,0,.65,4.12,4.12,0,0,1-8.18.3,4.62,4.62,0,0,1-.07-.65,4.14,4.14,0,1,1,8.27-.3Z"/><path class="cls-84" d="M148.14,123.41c0,.12,0,.25,0,.37a2.36,2.36,0,0,1-4.68.17c0-.12,0-.25,0-.37a2.37,2.37,0,1,1,4.74-.17Z"/><path class="cls-65" d="M146.37,123.47a.28.28,0,0,1,0,.09.6.6,0,0,1-.57.55.61.61,0,0,1-.61-.5s0-.06,0-.1a.6.6,0,1,1,1.2,0Z"/><path class="cls-83" d="M144.46,130.78a4.66,4.66,0,0,1,0,.65,4.12,4.12,0,0,1-8.18.29,4.48,4.48,0,0,1-.07-.64,4.14,4.14,0,1,1,8.27-.3Z"/><path class="cls-84" d="M142.69,130.85a2.32,2.32,0,0,1,0,.37,2.36,2.36,0,0,1-4.68.16c0-.12,0-.24,0-.37a2.37,2.37,0,1,1,4.73-.16Z"/><path class="cls-65" d="M140.92,130.91a.27.27,0,0,1,0,.09.6.6,0,0,1-1.18,0s0-.06,0-.09a.6.6,0,0,1,.58-.63A.59.59,0,0,1,140.92,130.91Z"/><path class="cls-83" d="M186,195.43a11.32,11.32,0,0,1-.06,1.43,9.15,9.15,0,0,1-18.14.65,11,11,0,0,1-.15-1.43,9.18,9.18,0,1,1,18.35-.65Z"/><path class="cls-84" d="M182,195.57a5.62,5.62,0,0,1,0,.82,5.23,5.23,0,0,1-10.38.37,5.41,5.41,0,0,1-.09-.82,5.26,5.26,0,1,1,10.5-.37Z"/><path class="cls-65" d="M178.1,195.71a1.48,1.48,0,0,1,0,.21,1.32,1.32,0,0,1-2.62.09,1.49,1.49,0,0,1,0-.21,1.34,1.34,0,0,1,1.27-1.41A1.36,1.36,0,0,1,178.1,195.71Z"/></g><path class="cls-83" d="M141.63,191.59a6,6,0,0,1,0,.74,4.67,4.67,0,0,1-9.26.33,5.82,5.82,0,0,1-.08-.73,4.69,4.69,0,1,1,9.36-.34Z"/><path class="cls-84" d="M139.63,191.67a3,3,0,0,1,0,.42,2.67,2.67,0,0,1-5.3.19c0-.14,0-.28,0-.42a2.68,2.68,0,1,1,5.36-.19Z"/><path class="cls-65" d="M137.63,191.74a.34.34,0,0,1,0,.1.67.67,0,0,1-.64.62.69.69,0,0,1-.69-.57.34.34,0,0,1,0-.1.67.67,0,0,1,.65-.72A.68.68,0,0,1,137.63,191.74Z"/><path class="cls-83" d="M160.8,138.09a4.54,4.54,0,0,1,0,.74,4.66,4.66,0,0,1-9.25.33,4.41,4.41,0,0,1-.08-.73,4.69,4.69,0,1,1,9.36-.34Z"/><path class="cls-84" d="M158.8,138.17a3,3,0,0,1,0,.42,2.67,2.67,0,0,1-5.29.19,2,2,0,0,1-.05-.42,2.68,2.68,0,1,1,5.36-.19Z"/><path class="cls-65" d="M156.79,138.24v.1a.68.68,0,0,1-1.34,0s0-.07,0-.1a.68.68,0,0,1,.65-.72A.67.67,0,0,1,156.79,138.24Z"/><path class="cls-65" d="M125.24,211.52l-7,25.42L87.69,238,126.9,111.36,162,110.1l44.26,123.68-31.89,1.15L166.69,210Zm19.55-72.82-13.44,49.5,28.33-1Z"/><g class="cls-101"><rect class="cls-70" x="187.26" y="80.28" width="6.3" height="160.81" transform="translate(-5.64 6.93) rotate(-2.06)"/></g><g class="cls-102"><rect class="cls-70" x="137.86" y="130.12" width="2.19" height="160.81" transform="translate(-7.46 5.12) rotate(-2.06)"/></g><g class="cls-103"><rect class="cls-70" x="127.66" y="94.82" width="8.38" height="9.67" transform="translate(-3.49 4.79) rotate(-2.06)"/></g><g class="cls-104"><rect class="cls-70" x="128.24" y="111.51" width="8.38" height="8.5" transform="translate(-4.07 4.83) rotate(-2.06)"/></g><g class="cls-105"><rect class="cls-70" x="129.66" y="151.44" width="8.38" height="7.88" transform="translate(-5.49 4.9) rotate(-2.06)"/></g><g class="cls-106"><rect class="cls-70" x="130.11" y="162.77" width="8.38" height="10.1" transform="translate(-5.93 4.93) rotate(-2.06)"/></g><g class="cls-107"><rect class="cls-70" x="131.15" y="176.55" width="8.38" height="40.52" transform="translate(-6.97 4.98) rotate(-2.06)"/></g><g class="cls-108"><rect class="cls-70" x="129.22" y="138.45" width="8.38" height="9.3" transform="matrix(1, -0.04, 0.04, 1, -5.05, 4.88)"/></g><g class="cls-109"><rect class="cls-70" x="128.74" y="125.27" width="8.38" height="8.79" transform="translate(-4.57 4.85) rotate(-2.06)"/></g><g class="cls-110"><rect class="cls-70" x="126.98" y="71.56" width="8.38" height="18.29" transform="matrix(1, -0.04, 0.04, 1, -2.81, 4.76)"/></g><path class="cls-65" d="M213.29,228.83l-44.55,1.6,0-.56,44.55-1.6Z"/><path class="cls-65" d="M168.94,230.11a2.35,2.35,0,1,1-2.44-2.27A2.36,2.36,0,0,1,168.94,230.11Zm-4.14.15a1.79,1.79,0,1,0,3.57-.13,1.79,1.79,0,0,0-3.57.13Z"/><path class="cls-65" d="M166.35,251.61l-.73,0v-.1l.73,0Zm0-1.46-.73,0,0-1.35.73,0Zm-.1-2.72-.73,0-.05-1.36.74,0Zm-.09-2.72-.74,0-.05-1.36.74,0ZM166,242l-.74,0,0-1.36.73,0Zm-.1-2.71-.73,0-.05-1.36.73,0Zm-.1-2.72-.73,0-.05-1.36.74,0Zm-.09-2.72-.74,0,0-1.36.74,0Zm-.1-2.72-.74,0,0-1.36.74,0Zm-.1-2.71-.73,0,0-1.36.73,0Zm-.1-2.72-.73,0-.05-1.36.73,0Z"/><path class="cls-65" d="M167.23,276.06l-.73,0V276l.74,0Zm0-1.46-.74,0,0-1.36.73,0Zm-.1-2.72-.73,0,0-1.36.73,0Zm-.1-2.71-.73,0-.05-1.36.74,0Zm-.09-2.72-.74,0-.05-1.36.74,0Zm-.1-2.72-.74,0,0-1.36.73,0Zm-.1-2.72-.73,0-.05-1.36.73,0Zm-.1-2.71-.73,0-.05-1.36.74,0Zm-.09-2.72-.74,0,0-1.36.74,0Zm-.1-2.72-.74,0,0-1.36.73,0Zm-.1-2.72-.73,0,0-1.36.73,0Z"/><rect class="cls-65" x="166.71" y="281.28" width="0.74" height="1.36" transform="translate(-10.01 6.18) rotate(-2.06)"/><rect class="cls-65" x="166.61" y="278.56" width="0.74" height="1.36" transform="translate(-9.91 6.17) rotate(-2.06)"/><rect class="cls-65" x="166.51" y="275.85" width="0.74" height="1.36" transform="translate(-9.81 6.17) rotate(-2.06)"/><rect class="cls-65" x="166.9" y="286.72" width="0.74" height="1.36" transform="translate(-10.2 6.19) rotate(-2.06)"/><rect class="cls-65" x="166.81" y="284" width="0.74" height="1.36" transform="translate(-10.11 6.18) rotate(-2.06)"/><rect class="cls-65" x="167" y="289.43" width="0.74" height="1.36" transform="translate(-10.3 6.19) rotate(-2.06)"/><circle class="cls-65" cx="191.46" cy="177.38" r="2.07"/><path class="cls-65" d="M191.62,181.85a4.47,4.47,0,1,1,4.31-4.63A4.48,4.48,0,0,1,191.62,181.85Zm-.3-8.38a3.91,3.91,0,1,0,4.05,3.77A3.91,3.91,0,0,0,191.32,173.47Z"/><path class="cls-83" d="M198.49,177a9.66,9.66,0,0,1,0,1.08,6.89,6.89,0,0,1-13.67.49,7.6,7.6,0,0,1-.11-1.08,6.92,6.92,0,1,1,13.82-.49Z"/><path class="cls-84" d="M195.53,177.1a4.24,4.24,0,0,1,0,.62,3.94,3.94,0,0,1-7.82.28,4.07,4.07,0,0,1,3.74-4.83A4,4,0,0,1,195.53,177.1Z"/><path class="cls-65" d="M192.57,177.21a.85.85,0,0,1,0,.16,1,1,0,0,1-1,.9,1,1,0,0,1-1-.83.88.88,0,0,1,0-.16,1,1,0,1,1,2-.07Z"/><path class="cls-65" d="M185.79,144c-.23-6.5-.5-13.93-.5-13.93V130l7.23-8.82c-.08-2.07-.9-24.9-1.49-40.5l.56,0c.61,16.07,1.48,40.28,1.49,40.6v.11l-7.23,8.82c0,1.25.27,7.66.5,13.82Z"/><path class="cls-65" d="M186.27,148.45a2.35,2.35,0,1,1,2.27-2.43A2.34,2.34,0,0,1,186.27,148.45Zm-.15-4.13A1.79,1.79,0,1,0,188,146,1.78,1.78,0,0,0,186.12,144.32Z"/><circle class="cls-65" cx="186.19" cy="146.1" r="1.17"/><path class="cls-65" d="M174,116.32l-13.43,49.5,28.32-1Z"/><g class="cls-80"><polygon class="cls-65" points="188.17 167.82 189.78 169.85 191.24 167.71 188.17 167.82"/><polygon class="cls-65" points="188.07 164.94 189.68 166.97 191.14 164.83 188.07 164.94"/><polygon class="cls-65" points="187.97 162.06 189.57 164.1 191.03 161.95 187.97 162.06"/><polygon class="cls-65" points="187.86 159.19 189.47 161.22 190.93 159.07 187.86 159.19"/><polygon class="cls-65" points="187.76 156.31 189.37 158.34 190.83 156.2 187.76 156.31"/></g><polygon class="cls-65" points="183.43 243.66 176.43 237.15 156.43 237.86 156.4 237.13 176.71 236.4 183.93 243.12 183.43 243.66"/><rect class="cls-65" x="188.11" y="195.26" width="18.08" height="0.28" transform="translate(-6.88 7.2) rotate(-2.06)"/><rect class="cls-65" x="188.17" y="197" width="18.08" height="0.28" transform="translate(-6.95 7.2) rotate(-2.06)"/><rect class="cls-65" x="188.24" y="198.73" width="18.08" height="0.28" transform="translate(-7.01 7.21) rotate(-2.06)"/><rect class="cls-65" x="160.55" y="222.8" width="18.08" height="0.28" transform="translate(-7.89 6.23) rotate(-2.06)"/><path class="cls-65" d="M145.32,189.9h-.23l-.45-12.35,0,0,5.53-5.94c-.54-17.72-1.63-51.36-1.86-52.11a.11.11,0,0,0,.08.07l0-.11-.09-.08.13,0c.1,0,.12,0,.23,2.37.06,1.36.15,3.36.25,5.93.16,4.33.37,10.37.63,17.94.43,12.89.83,25.93.83,26.06v0l0,0-5.52,5.94Z"/><polygon class="cls-65" points="143.58 189.96 143.35 189.97 142.53 166.93 145.65 163.72 144.33 127 144.56 126.99 145.88 163.81 142.76 167.02 143.58 189.96"/><polygon class="cls-65" points="141.85 190.02 141.62 190.03 141.01 173 137.34 168.73 135.93 129.28 136.16 129.27 137.57 168.64 141.24 172.91 141.85 190.02"/><polygon class="cls-65" points="140.12 190.09 139.89 190.09 139.68 180.93 134.81 176.4 134.26 161.04 134.49 161.03 135.04 176.3 139.91 180.83 139.91 180.88 140.12 190.09"/><path class="cls-65" d="M161.2,224.38l-7,25.42-30.57,1.09,39.21-126.68L197.94,123l44.25,123.69-31.89,1.14-7.65-24.89Zm19.54-72.82-13.43,49.5,28.32-1Z"/></g></g></g></svg>