<svg id="Capa_1" data-name="Capa 1" xmlns="http://www.w3.org/2000/svg" viewBox="0 0 367.11 359.75"><defs><style>.cls-1{fill:#533274;}</style></defs><path class="cls-1" d="M253.77,65.62c.92.23,1.84.48,2.76.7a28.36,28.36,0,0,1,22.36,27.15c.09,2.52.05,5,.05,7.58q0,62.49,0,125c0,11.44-4.54,20.26-14.38,26.22a27.4,27.4,0,0,1-14.29,3.84c-12.3.05-24.6,0-36.9,0-.29,0-.58-.05-1-.1V237h2.28q17.22,0,34.44,0c7,0,10.83-3.79,10.84-10.74q0-65.37,0-130.76c0-7-3.75-10.81-10.73-10.81q-65.64,0-131.27,0c-7,0-10.73,3.78-10.73,10.81q0,65.27,0,130.54c0,7.23,3.79,11,11.07,11q17,0,34,0h2.54v18.92c-.6.06-1.18.15-1.75.16-11.86,0-23.71.07-35.56,0-15-.1-26.46-9.71-29-24.28a31.54,31.54,0,0,1-.33-5.33q0-65.61,0-131.21c0-14.58,8.67-25.68,22.4-28.93.92-.22,1.84-.47,2.76-.7Z"/><path class="cls-1" d="M173.47,155.72q-10.32,10.34-20.65,20.68c-2.77,2.78-5.95,4.17-9.9,3.09a9.42,9.42,0,0,1-4.86-15.15c.52-.63,1.1-1.22,1.68-1.8l35.89-35.82c5.35-5.34,10.5-5.33,15.87,0q18.12,18.06,36.22,36.13c2.46,2.45,3.9,5.22,3.38,8.78a9.42,9.42,0,0,1-15.18,6.15,55.47,55.47,0,0,1-4.84-4.62c-5.85-5.82-11.68-11.66-18-18v3.11q0,62.15,0,124.29a17.5,17.5,0,0,1-.61,5.27,9.44,9.44,0,0,1-18.3-2.43c-.09-1.11-.08-2.22-.08-3.34q0-61.81,0-123.63v-2.59Z"/></svg>